<?xml version="1.0" standalone="no"?>
<!DOCTYPE svg PUBLIC "-//W3C//DTD SVG 1.1//EN" "http://www.w3.org/Graphics/SVG/1.1/DTD/svg11.dtd" >
<svg>
<metadata>
Created by FontForge 20090914 at Thu Nov 11 12:55:46 2021
 By www-data
Copyright (c) 1989, 1995 Adobe Systems Incorporated.  All Rights Reserved.Avenir is a trademark of Linotype-Hell AG and/or its subsidiaries.
</metadata>
<defs>
<font id="Avenir-Black" horiz-adv-x="260" >
  <font-face 
    font-family="Avenir"
    font-weight="900"
    font-stretch="normal"
    units-per-em="1000"
    panose-1="2 0 0 0 0 0 0 0 0 0"
    ascent="800"
    descent="-200"
    x-height="486"
    cap-height="708"
    bbox="-161 -250 1135 952.998"
    underline-thickness="50"
    underline-position="-75"
    unicode-range="U+0020-U+FB02"
  />
<missing-glyph horiz-adv-x="296" 
 />
    <glyph glyph-name=".notdef" horiz-adv-x="296" 
 />
    <glyph glyph-name="space" unicode=" " horiz-adv-x="296" 
 />
    <glyph glyph-name="exclam" unicode="!" horiz-adv-x="444" 
d="M297 708h-150v-474h150v474zM130 86c0 -12.667 2.33301 -24.667 7 -36s11.167 -21.166 19.5 -29.499s18.166 -14.833 29.499 -19.5s23.333 -7 36 -7s24.667 2.33301 36 7s21.166 11.167 29.499 19.5s14.833 18.166 19.5 29.499s7 23.333 7 36s-2.33301 24.667 -7 36
s-11.167 21.166 -19.5 29.499s-18.166 14.833 -29.499 19.5s-23.333 7 -36 7s-24.667 -2.33301 -36 -7s-21.166 -11.167 -29.499 -19.5s-14.833 -18.166 -19.5 -29.499s-7 -23.333 -7 -36z" />
    <glyph glyph-name="quotedbl" unicode="&#x22;" horiz-adv-x="520" 
d="M313 426h126v282h-126v-282zM81 426h126v282h-126v-282z" />
    <glyph glyph-name="numbersign" unicode="#" horiz-adv-x="592" 
d="M101 0h97l28 201h99l-28 -201h97l28 201h96v90h-84l17 126h96v90h-84l28 201h-97l-28 -201h-99l28 201h-97l-28 -201h-96v-90h84l-17 -126h-96v-90h84zM337 291h-99l17 126h99z" />
    <glyph glyph-name="dollar" unicode="$" horiz-adv-x="592" 
d="M328 790l-66 -0.00292969v-70c-29.333 -3.33301 -57.833 -10.666 -85.5 -21.999s-52 -26 -73 -44s-37.833 -39.667 -50.5 -65s-19 -53.666 -19 -84.999c0 -50.667 13.167 -90.5 39.5 -119.5s64.833 -51.5 115.5 -67.5l73 -22v-169c-27.333 2 -53.333 7.5 -78 16.5
s-45.667 24.167 -63 45.5l-106 -119c33.333 -30 71.833 -51 115.5 -63s87.5 -18 131.5 -18v-70h66v70c32.667 3.33301 63.667 10.333 93 21s55 25.334 77 44.001s39.333 41.334 52 68.001s19 57.667 19 93c0 46.667 -13.167 85.167 -39.5 115.5s-61.5 52.166 -105.5 65.499
l-96 28v159c21.333 -1.33301 42.333 -5.16602 63 -11.499s39 -16.5 55 -30.5l96 117c-29.333 23.333 -63.333 39.666 -102 48.999s-76 14 -112 14v70zM262 438.997c-4 1.33301 -10.001 3 -18.001 5s-16 5.5 -24 10.5s-15 11.833 -21 20.5s-9 20.667 -9 36
c0 21.333 7.33301 37 22 47s31.334 17 50.001 21v-140zM327.999 277.997l19 -7.00098c8.66699 -3.33301 17 -6.83301 25 -10.5s15 -8 21 -13s10.833 -11.167 14.5 -18.5s5.5 -16.333 5.5 -27c0 -11.333 -2.5 -21.166 -7.5 -29.499s-11.5 -15.5 -19.5 -21.5
s-17.167 -10.833 -27.5 -14.5s-20.5 -6.5 -30.5 -8.5v150z" />
    <glyph glyph-name="percent" unicode="%" horiz-adv-x="907" 
d="M508 187c0 -27.333 5.16699 -53.166 15.5 -77.499s24.333 -45.5 42 -63.5s38.5 -32.167 62.5 -42.5s49.667 -15.5 77 -15.5s53 5.16699 77 15.5s44.833 24.5 62.5 42.5s31.667 39.167 42 63.5s15.5 50.166 15.5 77.499s-5.16699 53 -15.5 77s-24.333 45 -42 63
s-38.5 32.167 -62.5 42.5s-49.667 15.5 -77 15.5s-53 -5.16699 -77 -15.5s-44.833 -24.5 -62.5 -42.5s-31.667 -39 -42 -63s-15.5 -49.667 -15.5 -77zM800 187c0 -27.333 -9.16699 -50.333 -27.5 -69s-40.833 -28 -67.5 -28s-49.167 9.33301 -67.5 28s-27.5 41.667 -27.5 69
c0 26.667 9.16699 49.334 27.5 68.001s40.833 28 67.5 28s49.167 -9.33301 67.5 -28s27.5 -41.334 27.5 -68.001zM5 522c0 -27.333 5.16699 -53 15.5 -77s24.333 -45 42 -63s38.5 -32.167 62.5 -42.5s49.667 -15.5 77 -15.5s53 5.16699 77 15.5s44.833 24.5 62.5 42.5
s31.667 39 42 63s15.5 49.667 15.5 77s-5.16699 53 -15.5 77s-24.333 45 -42 63s-38.5 32.167 -62.5 42.5s-49.667 15.5 -77 15.5s-53 -5.16699 -77 -15.5s-44.833 -24.5 -62.5 -42.5s-31.667 -39 -42 -63s-15.5 -49.667 -15.5 -77zM297 522
c0 -26.667 -9.16699 -49.334 -27.5 -68.001s-40.833 -28 -67.5 -28s-49.167 9.33301 -67.5 28s-27.5 41.334 -27.5 68.001s9.16699 49.334 27.5 68.001s40.833 28 67.5 28s49.167 -9.33301 67.5 -28s27.5 -41.334 27.5 -68.001zM210 11l76 -43l413 725l-84 47z" />
    <glyph glyph-name="ampersand" unicode="&#x26;" horiz-adv-x="759" 
d="M744 365l-173.998 0.00390625l-69 -94l-91 97c18 9.33301 34.833 20.166 50.5 32.499s29.5 26.333 41.5 42s21.5 32.5 28.5 50.5s10.5 37.667 10.5 59c0 30 -5.66699 55.833 -17 77.5s-26.5 39.667 -45.5 54s-40.833 25 -65.5 32s-50.667 10.5 -78 10.5
c-28 0 -55.333 -3.33301 -82 -10s-50.334 -17.334 -71.001 -32.001s-37.167 -33.334 -49.5 -56.001s-18.5 -50 -18.5 -82c0 -17.333 1.83301 -33 5.5 -47s9 -27.333 16 -40s15.333 -24.667 25 -36l31.5 -36c-21.333 -7.33301 -41 -17.166 -59 -29.499
s-33.833 -26.833 -47.5 -43.5s-24.334 -35.167 -32.001 -55.5s-11.5 -41.833 -11.5 -64.5c0 -35.333 7 -66.333 21 -93s32.833 -48.834 56.5 -66.501s50.5 -30.834 80.5 -39.501s61 -13 93 -13c42 0 79.833 6.66699 113.5 20s65.167 35 94.5 65l59 -67h193l-158 167z
M333.002 606.004c19.333 0 35.834 -5.50098 49.501 -16.501s20.5 -26.833 20.5 -47.5c0 -10 -2.66699 -19.5 -8 -28.5s-12 -17.333 -20 -25s-16.667 -14.667 -26 -21s-18 -11.833 -26 -16.5l-19.5 18c-7 6.66699 -13.333 13.834 -19 21.501s-10.5 15.667 -14.5 24
s-6 16.833 -6 25.5c0 20 6.66699 36 20 48s29.666 18 48.999 18zM410.003 166.003c-16.667 -14.667 -33.501 -26.999 -50.501 -36.999s-37.167 -15 -60.5 -15c-12 0 -23.833 2.16699 -35.5 6.5s-21.834 10.166 -30.501 17.499s-15.667 16.333 -21 27s-8 22.667 -8 36
s2.33301 25 7 35s10.834 18.833 18.501 26.5s16.334 14.667 26.001 21l29.5 18.5z" />
    <glyph glyph-name="quotesingle" unicode="'" horiz-adv-x="296" 
d="M85 426h126v282h-126v-282z" />
    <glyph glyph-name="parenleft" unicode="(" horiz-adv-x="314" 
d="M190 732l-2 -3.99805c-46 -68.667 -81.5 -138.5 -106.5 -209.5s-37.5 -147.833 -37.5 -230.5s12.5 -159.5 37.5 -230.5s60.5 -140.833 106.5 -209.5l2 -4l103 60c-20 32 -38 62.667 -54 92s-29.5 59.166 -40.5 89.499s-19.5 62 -25.5 95s-9 68.833 -9 107.5
s3 74.5 9 107.5s14.5 64.667 25.5 95s24.5 60.166 40.5 89.499s34 60 54 92z" />
    <glyph glyph-name="parenright" unicode=")" horiz-adv-x="314" 
d="M124 -156l2 3.99805c46 68.667 81.5 138.5 106.5 209.5s37.5 147.833 37.5 230.5s-12.5 159.5 -37.5 230.5s-60.5 140.833 -106.5 209.5l-2 4l-103 -60c20 -32 38 -62.667 54 -92s29.5 -59.166 40.5 -89.499s19.5 -62 25.5 -95s9 -68.833 9 -107.5s-3 -74.5 -9 -107.5
s-14.5 -64.667 -25.5 -95s-24.5 -60.166 -40.5 -89.499s-34 -60 -54 -92z" />
    <glyph glyph-name="asterisk" unicode="*" horiz-adv-x="482" 
d="M293 708h-102v-138l-131 47l-32 -95l133 -46l-84 -109l81 -61l81 110l84 -115l83 61l-83 114l131 42l-30 95l-131 -43v138z" />
    <glyph glyph-name="plus" unicode="+" horiz-adv-x="666" 
d="M59 240h211v-211h126v211h211v126h-211v211h-126v-211h-211v-126z" />
    <glyph glyph-name="comma" unicode="," horiz-adv-x="296" 
d="M17 -120h128l90 282h-144z" />
    <glyph glyph-name="hyphen" unicode="-" horiz-adv-x="296" 
d="M271 309h-246v-120h246v120z" />
    <glyph glyph-name="period" unicode="." horiz-adv-x="296" 
d="M56 86c0 -12.667 2.33301 -24.667 7 -36s11.167 -21.166 19.5 -29.499s18.166 -14.833 29.499 -19.5s23.333 -7 36 -7s24.667 2.33301 36 7s21.166 11.167 29.499 19.5s14.833 18.166 19.5 29.499s7 23.333 7 36s-2.33301 24.667 -7 36s-11.167 21.166 -19.5 29.499
s-18.166 14.833 -29.499 19.5s-23.333 7 -36 7s-24.667 -2.33301 -36 -7s-21.166 -11.167 -29.499 -19.5s-14.833 -18.166 -19.5 -29.499s-7 -23.333 -7 -36z" />
    <glyph glyph-name="slash" unicode="/" horiz-adv-x="407" 
d="M-3 -18l113 -35l300 779l-114 35z" />
    <glyph glyph-name="zero" unicode="0" horiz-adv-x="592" 
d="M33 354c0 -42 3.83301 -84.667 11.5 -128s21.334 -82.666 41.001 -117.999s46.5 -64.166 80.5 -86.499s77.333 -33.5 130 -33.5s96 11.167 130 33.5s60.833 51.166 80.5 86.499s33.334 74.666 41.001 117.999s11.5 86 11.5 128s-3.83301 84.667 -11.5 128
s-21.334 82.666 -41.001 117.999s-46.5 64.166 -80.5 86.499s-77.333 33.5 -130 33.5s-96 -11.167 -130 -33.5s-60.833 -51.166 -80.5 -86.499s-33.334 -74.666 -41.001 -117.999s-11.5 -86 -11.5 -128zM183 354c0 18.667 0.833008 41 2.5 67s6.16699 51 13.5 75
s18.5 44.333 33.5 61s36.167 25 63.5 25c26.667 0 47.667 -8.33301 63 -25s26.666 -37 33.999 -61s11.833 -49 13.5 -75s2.5 -48.333 2.5 -67s-0.833008 -41 -2.5 -67s-6.16699 -51 -13.5 -75s-18.666 -44.333 -33.999 -61s-36.333 -25 -63 -25
c-27.333 0 -48.5 8.33301 -63.5 25s-26.167 37 -33.5 61s-11.833 49 -13.5 75s-2.5 48.333 -2.5 67z" />
    <glyph glyph-name="one" unicode="1" horiz-adv-x="592" 
d="M288 0h144v708h-140l-231 -195l85 -98l142 125v-540z" />
    <glyph glyph-name="two" unicode="2" horiz-adv-x="592" 
d="M49 0h494.005v132h-314l215 185c13.333 12 25.666 24.333 36.999 37s21.166 26.5 29.499 41.5s14.833 31.667 19.5 50s7 38.833 7 61.5c0 35.333 -5.83301 66.333 -17.5 93s-27.834 48.834 -48.501 66.501s-45 31 -73 40s-58 13.5 -90 13.5
c-34.667 0 -66.834 -4.5 -96.501 -13.5s-55.5 -22.5 -77.5 -40.5s-39.667 -40.5 -53 -67.5s-21 -58.833 -23 -95.5l150 -11c2 25.333 10.833 46.666 26.5 63.999s37.5 26 65.5 26c23.333 0 43.666 -6.83301 60.999 -20.5s26 -32.5 26 -56.5c0 -21.333 -7 -40 -21 -56
s-28 -30.333 -42 -43l-275 -247v-159z" />
    <glyph glyph-name="three" unicode="3" horiz-adv-x="592" 
d="M216 299l34.998 -0.00585938c16.667 0 33.334 -0.5 50.001 -1.5s31.667 -4.16699 45 -9.5s24.166 -13.5 32.499 -24.5s12.5 -26.5 12.5 -46.5c0 -26.667 -7.83301 -48.5 -23.5 -65.5s-39.834 -25.5 -72.501 -25.5c-32 0 -56.167 7.33301 -72.5 22
s-27.166 34.667 -32.499 60l-158 -37c14.667 -63.333 44.834 -109.666 90.501 -138.999s100.167 -44 163.5 -44c34.667 0 67.5 4.33301 98.5 13s58 21.834 81 39.501s41.333 39.834 55 66.501s20.5 57.667 20.5 93c0 20.667 -3 40.334 -9 59.001s-14.667 35.334 -26 50.001
s-25.166 27 -41.499 37s-35.166 16.333 -56.499 19v3c39.333 8 69.333 26 90 54s31 61.667 31 101c0 34 -6.5 63.333 -19.5 88s-30.5 45.167 -52.5 61.5s-47.5 28.333 -76.5 36s-59.167 11.5 -90.5 11.5c-30 0 -58.5 -3.16699 -85.5 -9.5s-51.5 -16.166 -73.5 -29.499
s-41 -30.833 -57 -52.5s-28 -47.834 -36 -78.501l165 -34c4.66699 18.667 14.667 34.334 30 47.001s34.666 19 57.999 19c24.667 0 45.5 -7 62.5 -21s25.5 -31.667 25.5 -53c0 -16.667 -3.33301 -30.167 -10 -40.5s-15.5 -18.333 -26.5 -24s-23.167 -9.5 -36.5 -11.5
s-27 -3 -41 -3h-49v-130z" />
    <glyph glyph-name="four" unicode="4" horiz-adv-x="592" 
d="M333 0h144v142h91v126h-91v440h-164l-289 -440v-126h309v-142zM333 268h-159l157 244h2v-244z" />
    <glyph glyph-name="five" unicode="5" horiz-adv-x="592" 
d="M517 708h-427.998l-8 -391c23.333 8 47.5 14.333 72.5 19s49.833 7 74.5 7c19.333 0 38.666 -1.66699 57.999 -5s36.833 -9.5 52.5 -18.5s28.334 -21 38.001 -36s14.5 -34.167 14.5 -57.5c0 -30.667 -9.5 -56 -28.5 -76s-44.5 -30 -76.5 -30
c-26 0 -47.667 7.83301 -65 23.5s-28 36.167 -32 61.5l-157 -36c15.333 -60.667 43.666 -106 84.999 -136s92.666 -45 153.999 -45c38.667 0 74.5 5.66699 107.5 17s61.5 27.833 85.5 49.5s42.833 48.167 56.5 79.5s20.5 67 20.5 107c0 36 -6 68.5 -18 97.5
s-28.833 53.667 -50.5 74s-47.5 35.833 -77.5 46.5s-63 16 -99 16c-26.667 0 -47.667 -2.66699 -63 -8l3 109h281v132z" />
    <glyph glyph-name="six" unicode="6" horiz-adv-x="592" 
d="M453 708h-183.003l-155 -242l-32.5 -52.5c-10.333 -17 -19.333 -34.833 -27 -53.5s-13.834 -38.5 -18.501 -59.5s-7 -44.167 -7 -69.5c0 -36.667 6.83301 -69.834 20.5 -99.501s32.334 -55.167 56.001 -76.5s51.5 -37.833 83.5 -49.5s66.667 -17.5 104 -17.5
c36.667 0 71.167 5.83301 103.5 17.5s60.333 28.167 84 49.5s42.334 46.833 56.001 76.5s20.5 62.834 20.5 99.501c0 32 -5.33301 62.167 -16 90.5s-25.667 52.833 -45 73.5s-42.666 37 -69.999 49s-57.666 18 -90.999 18c-8.66699 0 -17 -0.666992 -25 -2s-16 -3 -24 -5z
M407.997 237c0 -32 -10.5 -58.5 -31.5 -79.5s-48.5 -31.5 -82.5 -31.5s-61.5 10.5 -82.5 31.5s-31.5 47.5 -31.5 79.5s10.5 58.5 31.5 79.5s48.5 31.5 82.5 31.5s61.5 -10.5 82.5 -31.5s31.5 -47.5 31.5 -79.5z" />
    <glyph glyph-name="seven" unicode="7" horiz-adv-x="592" 
d="M97 0h175l283 576v132h-518v-138h350z" />
    <glyph glyph-name="eight" unicode="8" horiz-adv-x="592" 
d="M59 525c0 -38.667 10.5049 -71.667 31.5049 -99s50.5 -46.666 88.5 -57.999v-2c-42.667 -11.333 -75.334 -31.833 -98.001 -61.5s-34 -66.5 -34 -110.5c0 -34 6.83301 -64 20.5 -90s32 -47.5 55 -64.5s49.5 -29.833 79.5 -38.5s61.333 -13 94 -13s64 4.33301 94 13
s56.5 21.5 79.5 38.5s41.333 38.5 55 64.5s20.5 56 20.5 90c0 44 -11.333 80.833 -34 110.5s-55.334 50.167 -98.001 61.5v2c38 11.333 67.5 30.666 88.5 57.999s31.5 60.333 31.5 99c0 32.667 -6.33301 61.167 -19 85.5s-29.667 44.666 -51 60.999s-46.333 28.5 -75 36.5
s-59.334 12 -92.001 12s-63.334 -4 -92.001 -12s-53.834 -20.167 -75.501 -36.5s-38.667 -36.666 -51 -60.999s-18.5 -52.833 -18.5 -85.5zM209.005 504c0 21.333 8 39.666 24 54.999s37 23 63 23s47 -7.66699 63 -23s24 -33.666 24 -54.999c0 -22 -8 -40.667 -24 -56
s-37 -23 -63 -23s-47 7.66699 -63 23s-24 34 -24 56zM197.005 215c0 25.333 9 46.666 27 63.999s42 26 72 26s54 -8.66699 72 -26s27 -38.666 27 -63.999c0 -24.667 -9 -45.667 -27 -63s-42 -26 -72 -26s-54 8.66699 -72 26s-27 38.333 -27 63z" />
    <glyph glyph-name="nine" unicode="9" horiz-adv-x="592" 
d="M139 0h183.003l155 242l32.5 52.5c10.333 17 19.333 34.833 27 53.5s13.834 38.5 18.501 59.5s7 44.167 7 69.5c0 36.667 -6.83301 69.834 -20.5 99.501s-32.334 55.167 -56.001 76.5s-51.667 37.833 -84 49.5s-66.833 17.5 -103.5 17.5
c-37.333 0 -72 -5.83301 -104 -17.5s-59.833 -28.167 -83.5 -49.5s-42.334 -46.833 -56.001 -76.5s-20.5 -62.834 -20.5 -99.501c0 -32 5.33301 -62.167 16 -90.5s25.667 -52.833 45 -73.5s42.666 -37 69.999 -49s57.666 -18 90.999 -18c8.66699 0 17 0.666992 25 2
s16 3 24 5zM184.003 471c0 32 10.5 58.5 31.5 79.5s48.5 31.5 82.5 31.5s61.5 -10.5 82.5 -31.5s31.5 -47.5 31.5 -79.5s-10.5 -58.5 -31.5 -79.5s-48.5 -31.5 -82.5 -31.5s-61.5 10.5 -82.5 31.5s-31.5 47.5 -31.5 79.5z" />
    <glyph glyph-name="colon" unicode=":" horiz-adv-x="296" 
d="M56 86c0 -12.667 2.33301 -24.667 7 -36s11.167 -21.166 19.5 -29.499s18.166 -14.833 29.499 -19.5s23.333 -7 36 -7s24.667 2.33301 36 7s21.166 11.167 29.499 19.5s14.833 18.166 19.5 29.499s7 23.333 7 36s-2.33301 24.667 -7 36s-11.167 21.166 -19.5 29.499
s-18.166 14.833 -29.499 19.5s-23.333 7 -36 7s-24.667 -2.33301 -36 -7s-21.166 -11.167 -29.499 -19.5s-14.833 -18.166 -19.5 -29.499s-7 -23.333 -7 -36zM56 406c0 -12.667 2.33301 -24.667 7 -36s11.167 -21.166 19.5 -29.499s18.166 -14.833 29.499 -19.5
s23.333 -7 36 -7s24.667 2.33301 36 7s21.166 11.167 29.499 19.5s14.833 18.166 19.5 29.499s7 23.333 7 36s-2.33301 24.667 -7 36s-11.167 21.166 -19.5 29.499s-18.166 14.833 -29.499 19.5s-23.333 7 -36 7s-24.667 -2.33301 -36 -7s-21.166 -11.167 -29.499 -19.5
s-14.833 -18.166 -19.5 -29.499s-7 -23.333 -7 -36z" />
    <glyph glyph-name="semicolon" unicode=";" horiz-adv-x="296" 
d="M17 -120h128l90 282h-144zM56 406c0 -12.667 2.33301 -24.667 7 -36s11.167 -21.166 19.5 -29.499s18.166 -14.833 29.499 -19.5s23.333 -7 36 -7s24.667 2.33301 36 7s21.166 11.167 29.499 19.5s14.833 18.166 19.5 29.499s7 23.333 7 36s-2.33301 24.667 -7 36
s-11.167 21.166 -19.5 29.499s-18.166 14.833 -29.499 19.5s-23.333 7 -36 7s-24.667 -2.33301 -36 -7s-21.166 -11.167 -29.499 -19.5s-14.833 -18.166 -19.5 -29.499s-7 -23.333 -7 -36z" />
    <glyph glyph-name="less" unicode="&#x3c;" horiz-adv-x="666" 
d="M586 564l-506 -198v-126l506 -198v136l-317 124v2l317 124v136z" />
    <glyph glyph-name="equal" unicode="=" horiz-adv-x="666" 
d="M59 336h548v126h-548v-126zM59 144h548v126h-548v-126z" />
    <glyph glyph-name="greater" unicode="&#x3e;" horiz-adv-x="666" 
d="M80 42l506 198v126l-506 198v-136l317 -124v-2l-317 -124v-136z" />
    <glyph glyph-name="question" unicode="?" horiz-adv-x="556" 
d="M216 234l150 -0.00195312v29c0 11.333 2.66699 22.666 8 33.999s15.666 23 30.999 35c24 18.667 43.833 35.834 59.5 51.501s28.334 31.167 38.001 46.5s16.5 30.833 20.5 46.5s6 33.167 6 52.5c0 32 -6 60.333 -18 85s-28.333 45.334 -49 62.001
s-44.5 29.167 -71.5 37.5s-55.833 12.5 -86.5 12.5c-70 0 -127.333 -18.5 -172 -55.5s-70.667 -90.833 -78 -161.5l154 -10c2 24.667 11.167 45.667 27.5 63s40.166 26 71.499 26c20.667 0 37.834 -6.16699 51.501 -18.5s20.5 -29.5 20.5 -51.5
c0 -11.333 -3.16699 -22.166 -9.5 -32.499s-15.166 -21.333 -26.499 -33s-24.833 -24.167 -40.5 -37.5s-32.834 -29 -51.501 -47c-12.667 -12 -21.667 -25 -27 -39s-8 -31 -8 -51v-44zM199 85.998c0 -12.667 2.33301 -24.667 7 -36s11.167 -21.166 19.5 -29.499
s18.166 -14.833 29.499 -19.5s23.333 -7 36 -7s24.667 2.33301 36 7s21.166 11.167 29.499 19.5s14.833 18.166 19.5 29.499s7 23.333 7 36s-2.33301 24.667 -7 36s-11.167 21.166 -19.5 29.499s-18.166 14.833 -29.499 19.5s-23.333 7 -36 7s-24.667 -2.33301 -36 -7
s-21.166 -11.167 -29.499 -19.5s-14.833 -18.166 -19.5 -29.499s-7 -23.333 -7 -36z" />
    <glyph glyph-name="at" unicode="@" horiz-adv-x="800" 
d="M475 364c0 -14 -1.49902 -28.167 -4.49902 -42.5s-8.5 -27.333 -16.5 -39s-18.833 -21.167 -32.5 -28.5s-30.834 -11 -51.501 -11c-14 0 -25.5 2.66699 -34.5 8s-16 12.166 -21 20.499s-8.5 17.833 -10.5 28.5s-3 21.334 -3 32.001c0 34.667 9 64 27 88s42.333 36 73 36
c25.333 0 44 -8.66699 56 -26s18 -39.333 18 -66zM605.001 534l-93.9971 -0.000976562l-8 -45h-2c-10 20.667 -23.833 35.334 -41.5 44.001s-39.834 13 -66.501 13c-31.333 0 -59.333 -6.16699 -84 -18.5s-45.5 -29 -62.5 -50s-30.167 -45 -39.5 -72s-14 -55.167 -14 -84.5
c0 -24.667 3.5 -47.334 10.5 -68.001s16.833 -38.334 29.5 -53.001s27.834 -26.167 45.501 -34.5s37.167 -12.5 58.5 -12.5c32 0 58 5.66699 78 17s36.667 23.666 50 36.999h2c0.666992 -13.333 7 -25.666 19 -36.999s32 -17 60 -17c10 0 22.5 1.16699 37.5 3.5
s30.667 6.5 47 12.5s32.666 14.667 48.999 26s31 26 44 44s23.667 40 32 66s12.5 56.667 12.5 92c0 52.667 -10.167 99.5 -30.5 140.5s-47.166 75.5 -80.499 103.5s-71.166 49.167 -113.499 63.5s-85.5 21.5 -129.5 21.5c-52.667 0 -102.167 -9.5 -148.5 -28.5
s-86.833 -45.167 -121.5 -78.5s-62 -72.666 -82 -117.999s-30 -94.666 -30 -147.999c0 -54 10.167 -103.833 30.5 -149.5s48.166 -84.834 83.499 -117.501s76.5 -58.167 123.5 -76.5s97.167 -27.5 150.5 -27.5c61.333 0 118.833 12.833 172.5 38.5s98.5 63.167 134.5 112.5
h-110c-24.667 -19.333 -52.834 -34.333 -84.501 -45s-66.5 -16 -104.5 -16c-42 0 -81 6.5 -117 19.5s-67.167 31.5 -93.5 55.5s-46.833 53.333 -61.5 88s-22 74 -22 118c0 40.667 6.66699 78.334 20 113.001s32.166 64.667 56.499 90s53.5 45 87.5 59s71.667 21 113 21
c38 0 73 -5.16699 105 -15.5s59.5 -25.833 82.5 -46.5s41 -46.167 54 -76.5s19.5 -65.5 19.5 -105.5c0 -26 -2.5 -48.333 -7.5 -67s-11.5 -34.167 -19.5 -46.5s-17.167 -21.333 -27.5 -27s-20.833 -8.5 -31.5 -8.5s-17.834 2.83301 -21.501 8.5s-5.5 12.167 -5.5 19.5
c0 9.33301 1 20.333 3 33s4 23.667 6 33z" />
    <glyph glyph-name="A" unicode="A" horiz-adv-x="741" 
d="M-1 0h172l59 150h275l61 -150h176l-308 708h-129zM452 282h-173l86 220z" />
    <glyph glyph-name="B" unicode="B" horiz-adv-x="648" 
d="M72 0l290 0.000976562c31.333 0 62.833 3.33301 94.5 10s60.167 17.667 85.5 33s46 35.5 62 60.5s24 56.167 24 93.5c0 22.667 -3.66699 44 -11 64s-17.833 37.5 -31.5 52.5s-30 27.333 -49 37s-40.167 16.167 -63.5 19.5v2c36.667 11.333 66.167 30.166 88.5 56.499
s33.5 59.5 33.5 99.5c0 38.667 -7.66699 69.667 -23 93s-35.333 41.5 -60 54.5s-52.5 21.667 -83.5 26s-61.833 6.5 -92.5 6.5h-264v-708zM228 576.001h106c12 0 24.333 -1.16699 37 -3.5s24 -6.16602 34 -11.499s18.167 -12.833 24.5 -22.5s9.5 -21.834 9.5 -36.501
c0 -14 -2.83301 -26 -8.5 -36s-13.167 -18 -22.5 -24s-19.833 -10.333 -31.5 -13s-23.5 -4 -35.5 -4h-113v151zM228 293.001l117.998 0.000976562c12.667 0 26.334 -1 41.001 -3s28.334 -5.66699 41.001 -11s23.167 -13.166 31.5 -23.499s12.5 -23.833 12.5 -40.5
c0 -15.333 -3.16699 -28.333 -9.5 -39s-14.5 -19.334 -24.5 -26.001s-21.167 -11.334 -33.5 -14.001s-24.5 -4 -36.5 -4h-140v161z" />
    <glyph glyph-name="C" unicode="C" horiz-adv-x="685" 
d="M655 622c-15.333 19.333 -32.6641 35.667 -51.9971 49s-39.5 24 -60.5 32s-42.333 13.833 -64 17.5s-42.5 5.5 -62.5 5.5c-55.333 0 -106.333 -8.66699 -153 -26s-87 -42.166 -121 -74.499s-60.5 -71.5 -79.5 -117.5s-28.5 -97.333 -28.5 -154s9.5 -108 28.5 -154
s45.5 -85.167 79.5 -117.5s74.333 -57.166 121 -74.499s97.667 -26 153 -26c48.667 0 96 10 142 30s84 51 114 93l-130 97c-16 -24 -36.333 -42.667 -61 -56s-53 -20 -85 -20c-28 0 -54.167 5.66699 -78.5 17s-45.5 27.166 -63.5 47.499s-32.167 44.333 -42.5 72
s-15.5 58.167 -15.5 91.5c0 32.667 5.16699 63 15.5 91s24.666 52.167 42.999 72.5s40 36.166 65 47.499s52.167 17 81.5 17s55.166 -5 77.499 -15s41.166 -24.333 56.499 -43z" />
    <glyph glyph-name="D" unicode="D" horiz-adv-x="759" 
d="M72 0h254.999c52.667 0 103 7.66699 151 23s90.333 37.833 127 67.5s65.834 66.334 87.501 110.001s32.5 94.167 32.5 151.5c0 64.667 -11.167 119.667 -33.5 165s-52.5 82.166 -90.5 110.499s-82.5 48.833 -133.5 61.5s-104.833 19 -161.5 19h-234v-708zM227.999 564
l91.999 0.00195312c32.667 0 63.834 -4.16699 93.501 -12.5s55.5 -20.833 77.5 -37.5s39.5 -37.834 52.5 -63.501s19.5 -55.834 19.5 -90.501c0 -40 -6.5 -73.833 -19.5 -101.5s-30.833 -50 -53.5 -67s-49.5 -29.167 -80.5 -36.5s-64.5 -11 -100.5 -11h-81v420z" />
    <glyph glyph-name="E" unicode="E" horiz-adv-x="630" 
d="M78 0h499v144h-343v144h307v144h-307v132h325v144h-481v-708z" />
    <glyph glyph-name="F" unicode="F" horiz-adv-x="593" 
d="M78 0h156v276h295v144h-295v144h319v144h-475v-708z" />
    <glyph glyph-name="G" unicode="G" horiz-adv-x="778" 
d="M713 420h-276.998v-144h127v-115c-14.667 -8 -34.334 -15.833 -59.001 -23.5s-54 -11.5 -88 -11.5c-33.333 0 -63.5 5.66699 -90.5 17s-50.167 27.166 -69.5 47.499s-34.166 44.333 -44.499 72s-15.5 58.167 -15.5 91.5c0 32.667 5.16699 63 15.5 91
s25.166 52.167 44.499 72.5s42.5 36.166 69.5 47.499s57.167 17 90.5 17c40 0 73.333 -5.66699 100 -17s50.667 -28 72 -50l110 120c-36 33.333 -77.833 56.833 -125.5 70.5s-99.834 20.5 -156.501 20.5c-55.333 0 -106.333 -8.66699 -153 -26s-87 -42.166 -121 -74.499
s-60.5 -71.5 -79.5 -117.5s-28.5 -97.333 -28.5 -154s9.5 -108 28.5 -154s45.5 -85.167 79.5 -117.5s74.333 -57.166 121 -74.499s97.667 -26 153 -26c52 0 103 5.33301 153 16s98 28 144 52v370z" />
    <glyph glyph-name="H" unicode="H" horiz-adv-x="759" 
d="M72 0h156v306h303v-306h156v708h-156v-264h-303v264h-156v-708z" />
    <glyph glyph-name="I" unicode="I" horiz-adv-x="296" 
d="M70 0h156v708h-156v-708z" />
    <glyph glyph-name="J" unicode="J" horiz-adv-x="500" 
d="M438 708l-156 -0.000976562v-454c0 -13.333 -0.5 -27.833 -1.5 -43.5s-3.83301 -30.167 -8.5 -43.5s-12 -24.5 -22 -33.5s-24 -13.5 -42 -13.5c-17.333 0 -32.833 6 -46.5 18s-21.5 26.667 -23.5 44l-143 -35c11.333 -56.667 36.333 -98.334 75 -125.001s86 -40 142 -40
c48 0 86.833 7.16699 116.5 21.5s52.5 33.333 68.5 57s26.833 50.834 32.5 81.501s8.5 62.334 8.5 95.001v471z" />
    <glyph glyph-name="K" unicode="K" horiz-adv-x="722" 
d="M78 0h156v336l288 -336h218l-342 379l315 329h-204l-275 -294v294h-156v-708z" />
    <glyph glyph-name="L" unicode="L" horiz-adv-x="537" 
d="M78 0h445v144h-289v564h-156v-708z" />
    <glyph glyph-name="M" unicode="M" horiz-adv-x="944" 
d="M72 0h156v543h2l179 -543h119l186 543h2v-543h156v708h-235l-164 -462h-2l-163 462h-236v-708z" />
    <glyph glyph-name="N" unicode="N" horiz-adv-x="815" 
d="M72 0h156v504h2l309 -504h204v708h-156v-492h-2l-301 492h-212v-708z" />
    <glyph glyph-name="O" unicode="O" horiz-adv-x="832" 
d="M34 354c0 -56.667 9.5 -108 28.5 -154s45.5 -85.167 79.5 -117.5s74.333 -57.166 121 -74.499s97.667 -26 153 -26s106.333 8.66699 153 26s87 42.166 121 74.499s60.5 71.5 79.5 117.5s28.5 97.333 28.5 154s-9.5 108 -28.5 154s-45.5 85.167 -79.5 117.5
s-74.333 57.166 -121 74.499s-97.667 26 -153 26s-106.333 -8.66699 -153 -26s-87 -42.166 -121 -74.499s-60.5 -71.5 -79.5 -117.5s-28.5 -97.333 -28.5 -154zM196 354c0 32.667 5.16699 63 15.5 91s25.166 52.167 44.499 72.5s42.5 36.166 69.5 47.499s57.167 17 90.5 17
s63.5 -5.66699 90.5 -17s50.167 -27.166 69.5 -47.499s34.166 -44.5 44.499 -72.5s15.5 -58.333 15.5 -91c0 -33.333 -5.16699 -63.833 -15.5 -91.5s-25.166 -51.667 -44.499 -72s-42.5 -36.166 -69.5 -47.499s-57.167 -17 -90.5 -17s-63.5 5.66699 -90.5 17
s-50.167 27.166 -69.5 47.499s-34.166 44.333 -44.499 72s-15.5 58.167 -15.5 91.5z" />
    <glyph glyph-name="P" unicode="P" horiz-adv-x="630" 
d="M72 0h156.001v276h114c37.333 0 72 3.5 104 10.5s59.667 18.833 83 35.5s41.666 39 54.999 67s20 62.667 20 104c0 42 -7.16699 76.833 -21.5 104.5s-33.666 49.667 -57.999 66s-52.833 27.833 -85.5 34.5s-67.334 10 -104.001 10h-263v-708zM228.001 576h79.999
c14.667 0 30 -0.833008 46 -2.5s30.5 -5.5 43.5 -11.5s23.667 -14.5 32 -25.5s12.5 -25.5 12.5 -43.5c0 -16.667 -3.16699 -30.5 -9.5 -41.5s-14.666 -19.667 -24.999 -26s-22 -10.833 -35 -13.5s-26.5 -4 -40.5 -4h-104v168z" />
    <glyph glyph-name="Q" unicode="Q" horiz-adv-x="852" 
d="M847 120h-198v2c24 10.667 45 24.5 63 41.5s32.667 36.167 44 57.5s19.833 44 25.5 68s8.5 48.667 8.5 74c0 53.333 -9.83301 102.166 -29.5 146.499s-46.5 82.5 -80.5 114.5s-74 57 -120 75s-95.333 27 -148 27s-102 -8.83301 -148 -26.5s-86 -42.5 -120 -74.5
s-60.833 -70.333 -80.5 -115s-29.5 -93.667 -29.5 -147c0 -57.333 9.66699 -108.333 29 -153s46 -82.667 80 -114s74.5 -55.166 121.5 -71.499s98.167 -24.5 153.5 -24.5h429v120zM196 363c0 30.667 5.66699 59.334 17 86.001s26.833 49.834 46.5 69.501
s42.5 35.167 68.5 46.5s54 17 84 17s58 -5.66699 84 -17s48.833 -26.833 68.5 -46.5s35.167 -42.834 46.5 -69.501s17 -55.334 17 -86.001s-5.66699 -59.334 -17 -86.001s-26.833 -49.834 -46.5 -69.501s-42.5 -35.167 -68.5 -46.5s-54 -17 -84 -17s-58 5.66699 -84 17
s-48.833 26.833 -68.5 46.5s-35.167 42.834 -46.5 69.501s-17 55.334 -17 86.001z" />
    <glyph glyph-name="R" unicode="R" horiz-adv-x="648" 
d="M72 0h155.998v283h77l148 -283h187l-180 299c50 9.33301 88 31.5 114 66.5s39 77.5 39 127.5c0 41.333 -7.16699 75.833 -21.5 103.5s-33.666 49.667 -57.999 66s-52.666 28 -84.999 35s-66.5 10.5 -102.5 10.5h-274v-708zM227.998 576l102.002 0.000976562
c14 0 28.333 -1 43 -3s27.667 -5.83301 39 -11.5s20.666 -13.834 27.999 -24.501s11 -25 11 -43c0 -19.333 -4.16699 -34.333 -12.5 -45s-18.833 -18.5 -31.5 -23.5s-26.834 -8 -42.501 -9s-30.5 -1.5 -44.5 -1.5h-92v161z" />
    <glyph glyph-name="S" unicode="S" horiz-adv-x="574" 
d="M529 652c-30 26.667 -63.6709 45.6709 -101.004 57.0039s-76 17 -116 17c-34.667 0 -68.334 -4.83301 -101.001 -14.5s-61.5 -24.167 -86.5 -43.5s-45 -43.333 -60 -72s-22.5 -62 -22.5 -100c0 -39.333 8.16699 -71 24.5 -95s36.833 -43.333 61.5 -58
s51.334 -26.334 80.001 -35.001s55.334 -17.334 80.001 -26.001s45.167 -19.167 61.5 -31.5s24.5 -29.166 24.5 -50.499c0 -12.667 -3.16699 -23.667 -9.5 -33s-14.666 -17 -24.999 -23s-22 -10.5 -35 -13.5s-25.833 -4.5 -38.5 -4.5c-26 0 -51.167 5.83301 -75.5 17.5
s-44.5 28.167 -60.5 49.5l-111 -122c34 -31.333 70.667 -54 110 -68s82 -21 128 -21c36.667 0 71.5 4.66699 104.5 14s62 23.666 87 42.999s44.833 43.666 59.5 72.999s22 63.666 22 102.999c0 41.333 -8 74.333 -24 99s-36.167 44.334 -60.5 59.001s-50.5 26 -78.5 34
s-54.167 16 -78.5 24s-44.5 17.667 -60.5 29s-24 27.666 -24 48.999c0 13.333 3.33301 24.666 10 33.999s15.334 16.833 26.001 22.5s22 9.83398 34 12.501s23.667 4 35 4c19.333 0 39.833 -3.83301 61.5 -11.5s38.834 -19.5 51.501 -35.5z" />
    <glyph glyph-name="T" unicode="T" horiz-adv-x="574" 
d="M209 0h156v570h202v138h-560v-138h202v-570z" />
    <glyph glyph-name="U" unicode="U" horiz-adv-x="741" 
d="M669 708h-155.997v-429c0 -22 -3.5 -42.333 -10.5 -61s-16.833 -34.834 -29.5 -48.501s-27.667 -24.334 -45 -32.001s-36.333 -11.5 -57 -11.5s-39.834 3.83301 -57.501 11.5s-32.834 18.334 -45.501 32.001s-22.5 29.834 -29.5 48.501s-10.5 39 -10.5 61v429h-156v-435
c0 -42 6.33301 -80.667 19 -116s31.5 -66 56.5 -92s56.167 -46.333 93.5 -61s80.666 -22 129.999 -22c48.667 0 91.667 7.33301 129 22s68.5 35 93.5 61s43.833 56.667 56.5 92s19 74 19 116v435z" />
    <glyph glyph-name="V" unicode="V" horiz-adv-x="704" 
d="M285 0h125l292 708h-167l-178 -464h-2l-175 464h-178z" />
    <glyph glyph-name="W" unicode="W" horiz-adv-x="1000" 
d="M208 0h134l156 490h2l156 -490h139l207 708h-158l-119 -466h-2l-147 466h-145l-148 -454h-2l-113 454h-170z" />
    <glyph glyph-name="X" unicode="X" horiz-adv-x="722" 
d="M0 0h185l168 285l173 -285h196l-256 373l229 335h-189l-145 -248l-151 248h-196l234 -338z" />
    <glyph glyph-name="Y" unicode="Y" horiz-adv-x="648" 
d="M246 0h156v302l266 406h-185l-159 -265l-150 265h-194l266 -406v-302z" />
    <glyph glyph-name="Z" unicode="Z" horiz-adv-x="630" 
d="M35 0h560v144h-364l352 426v138h-535v-138h346l-359 -426v-144z" />
    <glyph glyph-name="bracketleft" unicode="[" horiz-adv-x="296" 
d="M276 732h-210v-888h210v90h-90v708h90v90z" />
    <glyph glyph-name="backslash" unicode="\" horiz-adv-x="407" 
d="M410 -18l-299 779l-114 -35l300 -779z" />
    <glyph glyph-name="bracketright" unicode="]" horiz-adv-x="296" 
d="M20 -156h210v888h-210v-90h90v-708h-90v-90z" />
    <glyph glyph-name="asciicircum" unicode="^" horiz-adv-x="666" 
d="M80 343h141l112 238l111 -238h142l-180 365h-146z" />
    <glyph glyph-name="underscore" unicode="_" horiz-adv-x="500" 
d="M500 -125v50h-500v-50h500z" />
    <glyph glyph-name="grave" unicode="`" 
d="M131 708h-204l173 -144h132z" />
    <glyph glyph-name="a" unicode="a" horiz-adv-x="537" 
d="M358 0l137.998 0.00292969v247c0 40.667 -3.33301 76.5 -10 107.5s-18.5 57.167 -35.5 78.5s-39.667 37.5 -68 48.5s-64.5 16.5 -108.5 16.5c-40 0 -78.667 -6.5 -116 -19.5s-70 -32.5 -98 -58.5l80 -82c16 18 34.167 32.167 54.5 42.5s42.833 15.5 67.5 15.5
c26 0 48.5 -7.83301 67.5 -23.5s28.5 -36.834 28.5 -63.501c-20.667 0 -43.167 -0.333008 -67.5 -1s-48.666 -2.66699 -72.999 -6s-47.833 -8.5 -70.5 -15.5s-42.834 -16.833 -60.501 -29.5s-31.667 -28.667 -42 -48s-15.5 -43 -15.5 -71
c0 -24.667 4.66699 -46.334 14 -65.001s22 -34.334 38 -47.001s34.5 -22.167 55.5 -28.5s42.833 -9.5 65.5 -9.5c30.667 0 59.834 5.66699 87.501 17s49.834 30 66.501 56h2v-61zM357.998 213.003l0.00195312 -32.002c0 -15.333 -3.16699 -28.666 -9.5 -39.999
s-14.833 -20.666 -25.5 -27.999s-22.834 -13 -36.501 -17s-27.834 -6 -42.501 -6c-16.667 0 -32.667 4.33301 -48 13s-23 22 -23 40c0 16.667 5.5 29.667 16.5 39s24.333 16.333 40 21s32 7.5 49 8.5s31.167 1.5 42.5 1.5h37z" />
    <glyph glyph-name="b" unicode="b" horiz-adv-x="630" 
d="M67 0h138.001v64h2c6 -8.66699 13.833 -17.5 23.5 -26.5s21 -17.167 34 -24.5s27.167 -13.333 42.5 -18s31.666 -7 48.999 -7c36 0 68.667 6.16699 98 18.5s54.5 29.666 75.5 51.999s37.167 48.833 48.5 79.5s17 64.334 17 101.001c0 34 -5.16699 66.5 -15.5 97.5
s-25 58.5 -44 82.5s-42.167 43.167 -69.5 57.5s-58.333 21.5 -93 21.5c-31.333 0 -60.5 -4.83301 -87.5 -14.5s-49.167 -26.167 -66.5 -49.5h-2v322h-150v-756zM205.001 243c0 36.667 10.5 66.334 31.5 89.001s50.5 34 88.5 34s67.5 -11.333 88.5 -34
s31.5 -52.334 31.5 -89.001s-10.5 -66.334 -31.5 -89.001s-50.5 -34 -88.5 -34s-67.5 11.333 -88.5 34s-31.5 52.334 -31.5 89.001z" />
    <glyph glyph-name="c" unicode="c" horiz-adv-x="482" 
d="M481 433c-23.333 24 -50.8311 40.8291 -82.498 50.4961s-61.834 14.5 -90.501 14.5c-37.333 0 -72.5 -6 -105.5 -18s-61.667 -29.167 -86 -51.5s-43.5 -49.166 -57.5 -80.499s-21 -66.333 -21 -105s7 -73.667 21 -105s33.167 -58.166 57.5 -80.499s53 -39.5 86 -51.5
s68.167 -18 105.5 -18c28.667 0 58.834 4.83301 90.501 14.5s59.167 26.5 82.5 50.5l-99 104c-8.66699 -10 -19 -18.667 -31 -26s-26.333 -11 -43 -11c-38 0 -67.5 11.333 -88.5 34s-31.5 52.334 -31.5 89.001s10.5 66.334 31.5 89.001s50.5 34 88.5 34
c15.333 0 29.666 -3.5 42.999 -10.5s23.666 -15.833 30.999 -26.5z" />
    <glyph glyph-name="d" unicode="d" horiz-adv-x="630" 
d="M563 756h-150.001v-322h-2c-17.333 23.333 -39.5 39.833 -66.5 49.5s-56.167 14.5 -87.5 14.5c-34.667 0 -65.667 -7.16699 -93 -21.5s-50.5 -33.5 -69.5 -57.5s-33.667 -51.5 -44 -82.5s-15.5 -63.5 -15.5 -97.5c0 -36.667 5.66699 -70.334 17 -101.001
s27.5 -57.167 48.5 -79.5s46.167 -39.666 75.5 -51.999s62 -18.5 98 -18.5c16.667 0 32.834 2.33301 48.501 7s30 10.667 43 18s24.333 15.5 34 24.5s17.5 17.833 23.5 26.5h2v-64h138v756zM424.999 243c0 -36.667 -10.5 -66.334 -31.5 -89.001s-50.5 -34 -88.5 -34
s-67.5 11.333 -88.5 34s-31.5 52.334 -31.5 89.001s10.5 66.334 31.5 89.001s50.5 34 88.5 34s67.5 -11.333 88.5 -34s31.5 -52.334 31.5 -89.001z" />
    <glyph glyph-name="e" unicode="e" horiz-adv-x="574" 
d="M408 161c-12.667 -17.333 -27.499 -31.502 -44.499 -42.502s-37.833 -16.5 -62.5 -16.5c-29.333 0 -54 8.5 -74 25.5s-33 39.833 -39 68.5h348v47c0 38.667 -5.33301 73.667 -16 105s-25.834 58.166 -45.501 80.499s-43.667 39.5 -72 51.5s-59.833 18 -94.5 18
c-37.333 0 -72.5 -6 -105.5 -18s-61.667 -29.167 -86 -51.5s-43.5 -49.166 -57.5 -80.499s-21 -66.333 -21 -105s7 -73.667 21 -105s33.167 -58.166 57.5 -80.499s53 -39.5 86 -51.5s68.167 -18 105.5 -18c39.333 0 77.333 8.33301 114 25s67 40.334 91 71.001z
M188.001 297.998c0.666992 12 3.50098 23.501 8.50098 34.501s12 20.667 21 29s19.833 15.166 32.5 20.499s27.334 8 44.001 8c27.333 0 49.666 -9 66.999 -27s25.666 -39.667 24.999 -65h-198z" />
    <glyph glyph-name="f" unicode="f" horiz-adv-x="370" 
d="M105 0l150.001 0.00195312v366h111v120h-111v77c0 32 6 53.167 18 63.5s30 15.5 54 15.5c9.33301 0 17.666 -0.833008 24.999 -2.5s15.333 -4.16699 24 -7.5l7 127c-14 3.33301 -28.333 5.66602 -43 6.99902s-29.667 2 -45 2c-40.667 0 -73.5 -5.16699 -98.5 -15.5
s-44.167 -24.5 -57.5 -42.5s-22.333 -38.833 -27 -62.5s-7 -48.834 -7 -75.501v-86h-99v-120h99v-366z" />
    <glyph glyph-name="g" unicode="g" horiz-adv-x="630" 
d="M563 486h-138v-64h-2c-6 8.66699 -14 17.5 -24 26.5s-22 17.167 -36 24.5s-29.833 13.333 -47.5 18s-37.167 7 -58.5 7c-34.667 0 -65.667 -7.16699 -93 -21.5s-50.5 -33.166 -69.5 -56.499s-33.667 -50.333 -44 -81s-15.5 -62 -15.5 -94
c0 -36.667 5.66699 -70.334 17 -101.001s27.5 -57.167 48.5 -79.5s46.167 -39.666 75.5 -51.999s62 -18.5 98 -18.5c22.667 0 46.834 4.83301 72.501 14.5s47.167 26.167 64.5 49.5h2v-47c0 -34.667 -10.833 -63.167 -32.5 -85.5s-55.5 -33.5 -101.5 -33.5
c-30.667 0 -58.834 5.66699 -84.501 17s-50.167 26.666 -73.5 45.999l-83 -124c35.333 -28 74 -46.833 116 -56.5s84.667 -14.5 128 -14.5c94.667 0 165.167 23.833 211.5 71.5s69.5 117.5 69.5 209.5v445zM185 246c0 16 3 31.167 9 45.5s14.5 27 25.5 38
s23.667 19.833 38 26.5s30.166 10 47.499 10c16.667 0 32.334 -3.33301 47.001 -10s27.5 -15.5 38.5 -26.5s19.5 -23.667 25.5 -38s9 -29.5 9 -45.5s-3 -31.167 -9 -45.5s-14.5 -27 -25.5 -38s-23.833 -19.833 -38.5 -26.5s-30.334 -10 -47.001 -10
c-17.333 0 -33.166 3.33301 -47.499 10s-27 15.5 -38 26.5s-19.5 23.667 -25.5 38s-9 29.5 -9 45.5z" />
    <glyph glyph-name="h" unicode="h" horiz-adv-x="574" 
d="M53 756v-756.004h150v242c0 16 1 31.333 3 46s6.16699 27.834 12.5 39.501s15.5 21 27.5 28s27.667 10.5 47 10.5s34.166 -4 44.499 -12s18 -18.333 23 -31s8 -26.5 9 -41.5s1.5 -29.5 1.5 -43.5v-238h150v268c0 32.667 -2.33301 63 -7 91s-13.5 52.333 -26.5 73
s-31.167 36.834 -54.5 48.501s-54 17.5 -92 17.5c-18 0 -34.667 -2.33301 -50 -7s-28.666 -10.667 -39.999 -18s-21 -15.666 -29 -24.999s-13.667 -18.666 -17 -27.999h-2v336h-150z" />
    <glyph glyph-name="i" unicode="i" 
d="M55 0h150v486h-150v-486zM43 639c0 -24 8.5 -44.5 25.5 -61.5s37.5 -25.5 61.5 -25.5s44.5 8.5 61.5 25.5s25.5 37.5 25.5 61.5s-8.5 44.5 -25.5 61.5s-37.5 25.5 -61.5 25.5s-44.5 -8.5 -61.5 -25.5s-25.5 -37.5 -25.5 -61.5z" />
    <glyph glyph-name="j" unicode="j" 
d="M205 486l-150.001 -0.00195312v-496c0 -9.33301 -0.333008 -19.666 -1 -30.999s-2.66699 -22 -6 -32s-8.66602 -18.333 -15.999 -25s-17.333 -10 -30 -10c-14 0 -27 3 -39 9l-8 -133c11.333 -3.33301 23 -5.5 35 -6.5s23.667 -1.5 35 -1.5c34 0 62.5 4.83301 85.5 14.5
s41.5 23.334 55.5 41.001s24 39 30 64s9 53.167 9 84.5v522zM42.999 638.998c0 -24 8.5 -44.5 25.5 -61.5s37.5 -25.5 61.5 -25.5s44.5 8.5 61.5 25.5s25.5 37.5 25.5 61.5s-8.5 44.5 -25.5 61.5s-37.5 25.5 -61.5 25.5s-44.5 -8.5 -61.5 -25.5s-25.5 -37.5 -25.5 -61.5z
" />
    <glyph glyph-name="k" unicode="k" horiz-adv-x="556" 
d="M53 0h150v246h2l164 -246h189l-198 267l193 219h-184l-166 -192v462h-150v-756z" />
    <glyph glyph-name="l" unicode="l" 
d="M55 0h150v756h-150v-756z" />
    <glyph glyph-name="m" unicode="m" horiz-adv-x="870" 
d="M53 0l149.999 -0.00292969v242c0 16 1 31.333 3 46s6.16699 27.834 12.5 39.501s15.5 21 27.5 28s27.667 10.5 47 10.5c17.333 0 30.5 -4 39.5 -12s15.5 -17.667 19.5 -29s6.33301 -23.333 7 -36s1 -23.334 1 -32.001v-257h150v257c0 14.667 1.5 28.667 4.5 42
s8 25 15 35s16.333 17.833 28 23.5s26.167 8.5 43.5 8.5c24.667 0 41.834 -8.16699 51.501 -24.5s14.5 -35.833 14.5 -58.5v-283h150v287c0 29.333 -2.83301 56.833 -8.5 82.5s-15 48 -28 67s-30.667 34 -53 45s-49.833 16.5 -82.5 16.5c-36 0 -66.333 -6.66699 -91 -20
s-45.667 -35.666 -63 -66.999c-13.333 30 -33.166 52 -59.499 66s-56.5 21 -90.5 21c-18 0 -34.667 -2.33301 -50 -7s-29 -10.667 -41 -18s-22.333 -15.666 -31 -24.999s-15.334 -18.666 -20.001 -27.999h-2v66h-144v-486z" />
    <glyph glyph-name="n" unicode="n" horiz-adv-x="574" 
d="M53 0l150.002 -0.00390625v242c0 16 1 31.333 3 46s6.16699 27.834 12.5 39.501s15.5 21 27.5 28s27.667 10.5 47 10.5s34.166 -4 44.499 -12s18 -18.333 23 -31s8 -26.5 9 -41.5s1.5 -29.5 1.5 -43.5v-238h150v268c0 32.667 -2.33301 63 -7 91s-13.5 52.333 -26.5 73
s-31.167 36.834 -54.5 48.501s-54 17.5 -92 17.5c-18 0 -34.667 -2.33301 -50 -7s-29 -10.667 -41 -18s-22.333 -15.666 -31 -24.999s-15.334 -18.666 -20.001 -27.999h-2v66h-144v-486z" />
    <glyph glyph-name="o" unicode="o" horiz-adv-x="610" 
d="M35 243c0 -38.667 7 -73.667 21 -105s33.167 -58.166 57.5 -80.499s53 -39.5 86 -51.5s68.167 -18 105.5 -18s72.5 6 105.5 18s61.667 29.167 86 51.5s43.5 49.166 57.5 80.499s21 66.333 21 105s-7 73.667 -21 105s-33.167 58.166 -57.5 80.499s-53 39.5 -86 51.5
s-68.167 18 -105.5 18s-72.5 -6 -105.5 -18s-61.667 -29.167 -86 -51.5s-43.5 -49.166 -57.5 -80.499s-21 -66.333 -21 -105zM185 243c0 36.667 10.5 66.334 31.5 89.001s50.5 34 88.5 34s67.5 -11.333 88.5 -34s31.5 -52.334 31.5 -89.001s-10.5 -66.334 -31.5 -89.001
s-50.5 -34 -88.5 -34s-67.5 11.333 -88.5 34s-31.5 52.334 -31.5 89.001z" />
    <glyph glyph-name="p" unicode="p" horiz-adv-x="630" 
d="M67 -228h149.999v280h2c17.333 -23.333 39.5 -39.833 66.5 -49.5s56.167 -14.5 87.5 -14.5c34.667 0 65.667 7.16699 93 21.5s50.5 33.5 69.5 57.5s33.667 51.5 44 82.5s15.5 63.5 15.5 97.5c0 36.667 -5.66699 70.334 -17 101.001s-27.5 57.167 -48.5 79.5
s-46.167 39.666 -75.5 51.999s-62 18.5 -98 18.5c-17.333 0 -33.666 -2.33301 -48.999 -7s-29.5 -10.667 -42.5 -18s-24.333 -15.5 -34 -24.5s-17.5 -17.833 -23.5 -26.5h-2v64h-138v-714zM204.999 243c0 36.667 10.5 66.334 31.5 89.001s50.5 34 88.5 34
s67.5 -11.333 88.5 -34s31.5 -52.334 31.5 -89.001s-10.5 -66.334 -31.5 -89.001s-50.5 -34 -88.5 -34s-67.5 11.333 -88.5 34s-31.5 52.334 -31.5 89.001z" />
    <glyph glyph-name="q" unicode="q" horiz-adv-x="630" 
d="M563 486h-137.999v-64h-2c-6 8.66699 -13.833 17.5 -23.5 26.5s-21 17.167 -34 24.5s-27.333 13.333 -43 18s-31.834 7 -48.501 7c-36 0 -68.667 -6.16699 -98 -18.5s-54.5 -29.666 -75.5 -51.999s-37.167 -48.833 -48.5 -79.5s-17 -64.334 -17 -101.001
c0 -34 5.16699 -66.5 15.5 -97.5s25 -58.5 44 -82.5s42.167 -43.167 69.5 -57.5s58.333 -21.5 93 -21.5c31.333 0 60.5 4.83301 87.5 14.5s49.167 26.167 66.5 49.5h2v-280h150v714zM425.001 243c0 -36.667 -10.5 -66.334 -31.5 -89.001s-50.5 -34 -88.5 -34
s-67.5 11.333 -88.5 34s-31.5 52.334 -31.5 89.001s10.5 66.334 31.5 89.001s50.5 34 88.5 34s67.5 -11.333 88.5 -34s31.5 -52.334 31.5 -89.001z" />
    <glyph glyph-name="r" unicode="r" horiz-adv-x="407" 
d="M53 0h150.001v203c0 24 1.33301 46 4 66s8.5 37.167 17.5 51.5s21.833 25.5 38.5 33.5s39.334 12 68.001 12c11.333 0 22.166 -0.833008 32.499 -2.5s20.833 -4.16699 31.5 -7.5v137c-7.33301 2 -15.333 3.33301 -24 4s-17.334 1 -26.001 1c-33.333 0 -61 -7.5 -83 -22.5
s-41 -37.5 -57 -67.5h-2v78h-150v-486z" />
    <glyph glyph-name="s" unicode="s" horiz-adv-x="463" 
d="M420 434c-22.667 24 -50.333 40.6689 -83 50.002s-65 14 -97 14c-25.333 0 -50.333 -3.16699 -75 -9.5s-46.5 -16.166 -65.5 -29.499s-34.333 -30.333 -46 -51s-17.5 -45.334 -17.5 -74.001c0 -30.667 6.16699 -55.167 18.5 -73.5s28 -32.5 47 -42.5
s39.333 -17.5 61 -22.5l61 -14c19 -4.33301 34.667 -9.66602 47 -15.999s18.5 -15.833 18.5 -28.5c0 -13.333 -7 -22.5 -21 -27.5s-29.667 -7.5 -47 -7.5c-22.667 0 -42.5 4.5 -59.5 13.5s-32.5 22.167 -46.5 39.5l-91 -101c24 -24.667 53.333 -41.834 88 -51.501
s69 -14.5 103 -14.5c26 0 52.333 2.5 79 7.5s50.667 13.667 72 26s38.833 28.666 52.5 48.999s20.5 46.166 20.5 77.499c0 30.667 -6.16699 55.167 -18.5 73.5s-28 32.833 -47 43.5s-39.333 18.5 -61 23.5l-61 14c-19 4.33301 -34.667 9.33301 -47 15s-18.5 14.5 -18.5 26.5
c0 14.667 6 25 18 31s24.333 9 37 9c36 0 65 -13.667 87 -41z" />
    <glyph glyph-name="t" unicode="t" horiz-adv-x="407" 
d="M384 486l-131.998 0.00195312v144h-150v-144h-96v-120h96v-231c0 -26.667 4.5 -49.334 13.5 -68.001s21.5 -33.834 37.5 -45.501s34.667 -20.167 56 -25.5s44.666 -8 69.999 -8c17.333 0 35 1 53 3s35.333 6 52 12v125c-6.66699 -6 -16.5 -9.83301 -29.5 -11.5
s-23.5 -2.5 -31.5 -2.5c-16 0 -28.833 2.16699 -38.5 6.5s-16.834 10.5 -21.501 18.5s-7.66699 17.5 -9 28.5s-2 23.167 -2 36.5v162h132v120z" />
    <glyph glyph-name="u" unicode="u" horiz-adv-x="574" 
d="M521 486l-150 0.00390625v-242c0 -16 -1 -31.333 -3 -46s-6.16699 -27.834 -12.5 -39.501s-15.5 -21 -27.5 -28s-27.667 -10.5 -47 -10.5s-34.166 4 -44.499 12s-18 18.333 -23 31s-8 26.5 -9 41.5s-1.5 29.5 -1.5 43.5v238h-150v-268c0 -32.667 2.16699 -63 6.5 -91
s13 -52.333 26 -73s31.333 -36.834 55 -48.501s54.5 -17.5 92.5 -17.5c18 0 34.667 2.33301 50 7s29 10.667 41 18s22.167 15.666 30.5 24.999s15.166 18.666 20.499 27.999h2v-66h144v486z" />
    <glyph glyph-name="v" unicode="v" horiz-adv-x="556" 
d="M203 0h159l192 486h-151l-114 -330h-2l-123 330h-162z" />
    <glyph glyph-name="w" unicode="w" horiz-adv-x="833" 
d="M173 0h151l90 323h2l101 -323h148l173 486h-152l-91 -305h-2l-90 305h-164l-83 -305h-2l-99 305h-160z" />
    <glyph glyph-name="x" unicode="x" horiz-adv-x="556" 
d="M-8 0h175l114 162l106 -162h177l-187 260l158 226h-167l-83 -132l-86 132h-177l162 -226z" />
    <glyph glyph-name="y" unicode="y" horiz-adv-x="556" 
d="M553 486h-153.998l-107 -321h-2l-125 321h-162l213 -490l-11 -28c-5.33301 -13.333 -10.333 -25 -15 -35s-10.5 -18.5 -17.5 -25.5s-15.833 -12.333 -26.5 -16s-24.334 -5.5 -41.001 -5.5c-24 0 -47.333 5 -70 15l-20 -123c36 -12 73.333 -18 112 -18
c36 0 65 3.5 87 10.5s40.167 17.333 54.5 31s26.166 30.5 35.499 50.5s19 43 29 69z" />
    <glyph glyph-name="z" unicode="z" horiz-adv-x="500" 
d="M34 0h432v120h-270l264 222v144h-420v-120h246l-252 -216v-150z" />
    <glyph glyph-name="braceleft" unicode="{" horiz-adv-x="370" 
d="M356 -42l-49 -0.00195312c-15.333 0 -27.333 2 -36 6s-15.167 9.16699 -19.5 15.5s-7 13.333 -8 21s-1.5 14.834 -1.5 21.501v162c0 23.333 -3.33301 41.666 -10 54.999s-14.834 23.5 -24.501 30.5s-20.334 11.5 -32.001 13.5s-22.834 3.33301 -33.501 4v2
c10.667 0.666992 21.834 2.16699 33.501 4.5s22.334 7 32.001 14s17.834 17.167 24.501 30.5s10 31.666 10 54.999v161c0 6.66699 0.5 13.834 1.5 21.501s3.66699 14.667 8 21s10.833 11.5 19.5 15.5s20.667 6 36 6h49v114h-105c-18.667 0 -35.834 -2.66699 -51.501 -8
s-29.334 -13.833 -41.001 -25.5s-20.667 -26.667 -27 -45s-9.5 -40.5 -9.5 -66.5v-173c0 -15.333 -4.5 -27.666 -13.5 -36.999s-19.5 -16.333 -31.5 -21s-24 -7.66699 -36 -9s-21 -2 -27 -2v-114c6 0 15 -0.666992 27 -2s24 -4.33301 36 -9s22.5 -11.667 31.5 -21
s13.5 -21.666 13.5 -36.999v-172c0 -26 3.33301 -48.167 10 -66.5s15.834 -33.5 27.501 -45.5s25.334 -20.667 41.001 -26s32.5 -8 50.5 -8h105v114z" />
    <glyph glyph-name="bar" unicode="|" horiz-adv-x="222" 
d="M48 750v-1000h126v1000h-126z" />
    <glyph glyph-name="braceright" unicode="}" horiz-adv-x="370" 
d="M14 618l49 0.00195312c15.333 0 27.333 -2 36 -6s15.167 -9.16699 19.5 -15.5s7 -13.333 8 -21s1.5 -14.834 1.5 -21.501v-162c0 -23.333 3.33301 -41.666 10 -54.999s14.834 -23.5 24.501 -30.5s20.334 -11.5 32.001 -13.5s22.834 -3.33301 33.501 -4v-2
c-10.667 -1.33301 -21.834 -3 -33.501 -5s-22.334 -6.5 -32.001 -13.5s-17.834 -17.167 -24.501 -30.5s-10 -31.666 -10 -54.999v-161c0 -6.66699 -0.5 -13.834 -1.5 -21.501s-3.66699 -14.667 -8 -21s-10.833 -11.5 -19.5 -15.5s-20.667 -6 -36 -6h-49v-114h105
c18.667 0 35.834 2.66699 51.501 8s29.167 13.833 40.5 25.5s20.333 26.667 27 45s10 40.5 10 66.5v173c0 15.333 4.33301 27.666 13 36.999s18.834 16.333 30.501 21s23.5 7.66699 35.5 9s21.667 2 29 2v114c-7.33301 0 -17 0.666992 -29 2s-23.833 4.33301 -35.5 9
s-21.834 11.667 -30.501 21s-13 21.666 -13 36.999v172c0 26 -3.33301 48.167 -10 66.5s-15.834 33.5 -27.501 45.5s-25.167 20.667 -40.5 26s-31.333 8 -48 8h-108v-114z" />
    <glyph glyph-name="asciitilde" unicode="~" horiz-adv-x="666" 
d="M528 400l-18 -24c-6 -8 -12.5 -15.167 -19.5 -21.5s-14.667 -11.666 -23 -15.999s-17.5 -6.5 -27.5 -6.5c-13.333 0 -29 4 -47 12l-55 24c-19.333 8.66699 -38.333 16.167 -57 22.5s-36.667 9.5 -54 9.5c-16.667 0 -31.5 -2.5 -44.5 -7.5s-24.5 -11.5 -34.5 -19.5
s-18.833 -17.167 -26.5 -27.5s-14.167 -20.833 -19.5 -31.5l36 -108l18 24c6 8 12.5 15.167 19.5 21.5s14.667 11.666 23 15.999s17.5 6.5 27.5 6.5c13.333 0 29 -4 47 -12l55 -24c19.333 -8.66699 38.333 -16.167 57 -22.5s36.667 -9.5 54 -9.5c16.667 0 31.5 2.5 44.5 7.5
s24.5 11.5 34.5 19.5s18.833 17.167 26.5 27.5s14.167 20.833 19.5 31.5z" />
    <glyph glyph-name="exclamdown" unicode="&#xa1;" horiz-adv-x="444" 
d="M147 -222h150v474h-150v-474zM314 400c0 12.667 -2.33301 24.667 -7 36s-11.167 21.166 -19.5 29.499s-18.166 14.833 -29.499 19.5s-23.333 7 -36 7s-24.667 -2.33301 -36 -7s-21.166 -11.167 -29.499 -19.5s-14.833 -18.166 -19.5 -29.499s-7 -23.333 -7 -36
s2.33301 -24.667 7 -36s11.167 -21.166 19.5 -29.499s18.166 -14.833 29.499 -19.5s23.333 -7 36 -7s24.667 2.33301 36 7s21.166 11.167 29.499 19.5s14.833 18.166 19.5 29.499s7 23.333 7 36z" />
    <glyph glyph-name="cent" unicode="&#xa2;" horiz-adv-x="592" 
d="M310 -81h60v69c11.333 0 24.5 1 39.5 3s30.333 5.33301 46 10s31.167 11 46.5 19s29.333 18 42 30l-91 107c-10.667 -10 -20.167 -18 -28.5 -24s-16 -10.333 -23 -13s-13 -4.33398 -18 -5.00098s-9.5 -1 -13.5 -1v258c11.333 0 23.5 -3 36.5 -9s26.167 -15.667 39.5 -29
l96 102c-26 22 -52.667 37.833 -80 47.5s-58 14.5 -92 14.5v66h-60v-66c-35.333 -4 -67.5 -13 -96.5 -27s-53.667 -32 -74 -54s-36 -47.667 -47 -77s-16.5 -61.666 -16.5 -96.999c0 -34.667 5.5 -67 16.5 -97s26.667 -56.333 47 -79s45 -41 74 -55s61.167 -22 96.5 -24v-69z
M310 114c-31.333 9.33301 -54.166 25.667 -68.499 49s-21.5 50.333 -21.5 81c0 31.333 7.16699 59 21.5 83s37.166 39 68.499 45v-258z" />
    <glyph glyph-name="sterling" unicode="&#xa3;" horiz-adv-x="592" 
d="M48 0h499.001v114h-253v198h156v102h-156v49c0 15.333 1.83301 30.5 5.5 45.5s10 28.333 19 40s21 21.167 36 28.5s33.5 11 55.5 11c13.333 0 28.5 -3.83301 45.5 -11.5s32.167 -18.167 45.5 -31.5l100 107c-28 25.333 -60.333 43 -97 53s-74 15 -112 15
c-40.667 0 -76.334 -6.66699 -107.001 -20s-56.5 -31 -77.5 -53s-36.833 -47 -47.5 -75s-16 -57 -16 -87v-71h-96v-102h96v-198h-96v-114z" />
    <glyph glyph-name="currency" unicode="&#xa4;" horiz-adv-x="592" 
d="M36 153l60 -59l49 48c21.333 -15.333 44.666 -27.166 69.999 -35.499s52.333 -12.5 81 -12.5s55.667 4.16699 81 12.5s48.666 20.166 69.999 35.499l49 -48l60 59l-49 49c32.667 44.667 49 95.334 49 152.001s-16.333 107.334 -49 152.001l49 49l-60 59l-49 -48
c-21.333 15.333 -44.666 27.166 -69.999 35.499s-52.333 12.5 -81 12.5s-55.667 -4.16699 -81 -12.5s-48.666 -20.166 -69.999 -35.499l-49 48l-60 -59l49 -49c-15.333 -21.333 -27.333 -44.833 -36 -70.5s-13 -52.834 -13 -81.501s4.33301 -55.834 13 -81.501
s20.667 -49.167 36 -70.5zM168 354c0 18.667 3.33301 36.167 10 52.5s15.834 30.5 27.501 42.5s25.167 21.5 40.5 28.5s32 10.5 50 10.5s34.667 -3.5 50 -10.5s28.833 -16.5 40.5 -28.5s20.834 -26.167 27.501 -42.5s10 -33.833 10 -52.5s-3.33301 -36.167 -10 -52.5
s-15.834 -30.5 -27.501 -42.5s-25.167 -21.5 -40.5 -28.5s-32 -10.5 -50 -10.5s-34.667 3.5 -50 10.5s-28.833 16.5 -40.5 28.5s-20.834 26.167 -27.501 42.5s-10 33.833 -10 52.5z" />
    <glyph glyph-name="yen" unicode="&#xa5;" horiz-adv-x="592" 
d="M218 0h156v158h169v96h-169v48l12 20h157v96h-100l185 290h-182l-150 -264l-150 264h-182l185 -290h-100v-96h157l12 -20v-48h-169v-96h169v-158z" />
    <glyph glyph-name="brokenbar" unicode="&#xa6;" horiz-adv-x="222" 
d="M48 675v-350h126v350h-126zM48 175v-350h126v350h-126z" />
    <glyph glyph-name="section" unicode="&#xa7;" horiz-adv-x="592" 
d="M517 617c-10 20.667 -23.333 37.9961 -40 51.9961s-35.167 25.333 -55.5 34s-41.5 14.667 -63.5 18s-43.667 5 -65 5c-25.333 0 -50.666 -3.33301 -75.999 -10s-48.333 -17 -69 -31s-37.5 -31.667 -50.5 -53s-19.5 -46.666 -19.5 -75.999c0 -24 5.66699 -45.833 17 -65.5
s26.666 -36.167 45.999 -49.5c-28 -17.333 -49.5 -37.833 -64.5 -61.5s-22.5 -52.5 -22.5 -86.5c0 -32 7.5 -58.833 22.5 -80.5s33.5 -40 55.5 -55s46.167 -27.5 72.5 -37.5s50.5 -19.833 72.5 -29.5s40.5 -19.667 55.5 -30s22.5 -23.5 22.5 -39.5
c0 -10 -2.66699 -18.333 -8 -25s-12 -12 -20 -16s-16.667 -6.83301 -26 -8.5s-18 -2.5 -26 -2.5c-11.333 0 -22.833 1.33301 -34.5 4s-22.5 6.83398 -32.5 12.501s-18.833 12.834 -26.5 21.501s-12.834 19 -15.501 31l-128 -63c11.333 -24 25.166 -44 41.499 -60
s34.5 -29 54.5 -39s41.667 -17 65 -21s47.333 -6 72 -6c26.667 0 54.5 3.33301 83.5 10s55.5 17.334 79.5 32.001s43.833 33.667 59.5 57s23.5 51.333 23.5 84c0 23.333 -4.83301 45.5 -14.5 66.5s-23.167 38.5 -40.5 52.5c24 12 44 29.667 60 53s24 49 24 77
c0 30 -7.66699 55.5 -23 76.5s-34.666 38.833 -57.999 53.5s-48.333 27.167 -75 37.5s-51.667 20.5 -75 30.5s-42.666 20.667 -57.999 32s-23 25.333 -23 42c0 18 6.83301 31.333 20.5 40s28.5 13 44.5 13c20 0 38.5 -5.33301 55.5 -16s29.167 -25.667 36.5 -45z
M272 238.996c-9.33301 4 -18.667 8.33301 -28 13s-17.833 10.167 -25.5 16.5s-14 13.666 -19 21.999s-7.5 18.5 -7.5 30.5c0 26 11.667 45.667 35 59l116 -55c7.33301 -3.33301 14.833 -7.16602 22.5 -11.499s14.667 -9.33301 21 -15s11.5 -12.334 15.5 -20.001
s6 -16.167 6 -25.5c0 -27.333 -11.333 -47.666 -34 -60.999z" />
    <glyph glyph-name="dieresis" unicode="&#xa8;" 
d="M25 558c24.667 0 44.999 8.33203 60.999 24.999s24 37 24 61s-8.66699 43.667 -26 59s-37.666 23 -60.999 23c-11.333 0 -21.833 -2.33301 -31.5 -7s-18.167 -10.667 -25.5 -18s-13.166 -16 -17.499 -26s-6.5 -20.333 -6.5 -31c0 -11.333 2.16699 -22.166 6.5 -32.499
s10.166 -19.5 17.499 -27.5s16 -14.333 26 -19s21 -7 33 -7zM232.999 557.999c24.667 0 44.999 8.33203 60.999 24.999s24 37 24 61s-8.66699 43.667 -26 59s-37.666 23 -60.999 23c-11.333 0 -21.833 -2.33301 -31.5 -7s-18.167 -10.667 -25.5 -18s-13.166 -16 -17.499 -26
s-6.5 -20.333 -6.5 -31c0 -11.333 2.16699 -22.166 6.5 -32.499s10.166 -19.5 17.499 -27.5s16 -14.333 26 -19s21 -7 33 -7z" />
    <glyph glyph-name="copyright" unicode="&#xa9;" horiz-adv-x="800" 
d="M494 300c-1.33301 -24.667 -9.66895 -41.9971 -25.002 -51.9971s-33.666 -15 -54.999 -15c-29.333 0 -52.5 11.667 -69.5 35s-25.5 53.666 -25.5 90.999c0 36 8 64.667 24 86s40.333 32 73 32c18 0 34.333 -4.33301 49 -13s24.334 -23.667 29.001 -45h94
c-4 24.667 -11.333 46.334 -22 65.001s-24 34.167 -40 46.5s-34 21.5 -54 27.5s-41.333 9 -64 9c-32 0 -60.333 -5.16699 -85 -15.5s-45.167 -24.833 -61.5 -43.5s-28.833 -40.834 -37.5 -66.501s-13 -53.834 -13 -84.501c0 -30 4.5 -58 13.5 -84s22 -48.667 39 -68
s37.833 -34.5 62.5 -45.5s52.667 -16.5 84 -16.5c22 0 42.833 3.33301 62.5 10s37.5 16.667 53.5 30s29.5 29.666 40.5 48.999s18.167 42 21.5 68h-94zM27.9971 354.003c0 -51.333 9.83301 -99.5 29.5 -144.5s46.334 -84.333 80.001 -118s73 -60.334 118 -80.001
s93.167 -29.5 144.5 -29.5s99.5 9.83301 144.5 29.5s84.333 46.334 118 80.001s60.334 73 80.001 118s29.5 93.167 29.5 144.5s-9.83301 99.5 -29.5 144.5s-46.334 84.333 -80.001 118s-73 60.334 -118 80.001s-93.167 29.5 -144.5 29.5s-99.5 -9.83301 -144.5 -29.5
s-84.333 -46.334 -118 -80.001s-60.334 -73 -80.001 -118s-29.5 -93.167 -29.5 -144.5zM129.997 354.003c0 38.667 7 75.167 21 109.5s33.333 64.166 58 89.499s53.334 45.5 86.001 60.5s67.667 22.5 105 22.5s72.333 -7.5 105 -22.5s61.334 -35.167 86.001 -60.5
s44 -55.166 58 -89.499s21 -70.833 21 -109.5s-7 -75.167 -21 -109.5s-33.333 -64.166 -58 -89.499s-53.334 -45.5 -86.001 -60.5s-67.667 -22.5 -105 -22.5s-72.333 7.5 -105 22.5s-61.334 35.167 -86.001 60.5s-44 55.166 -58 89.499s-21 70.833 -21 109.5z" />
    <glyph glyph-name="ordfeminine" unicode="&#xaa;" horiz-adv-x="349" 
d="M230 431l96 0.00195312v148c0 23.333 -2.16699 44.166 -6.5 62.499s-12 33.666 -23 45.999s-25.667 21.833 -44 28.5s-41.833 10 -70.5 10c-25.333 0 -50.333 -4 -75 -12s-46 -19.667 -64 -35l52 -49c10.667 10.667 22.5 19.334 35.5 26.001s27.5 10 43.5 10
c17.333 0 31 -4.83301 41 -14.5s15 -20.5 15 -32.5c-18.667 0 -40 -0.666992 -64 -2s-46.5 -5.5 -67.5 -12.5s-38.833 -17.5 -53.5 -31.5s-22 -33.667 -22 -59c0 -14.667 3 -27.5 9 -38.5s14.167 -20.333 24.5 -28s22.333 -13.334 36 -17.001s27.834 -5.5 42.501 -5.5
c20 0 38.667 3.33301 56 10s29.666 17.667 36.999 33h2v-37zM236 540.002c0 -11.333 -6.50098 -22.334 -19.501 -33.001s-29.167 -16 -48.5 -16c-10.667 0 -20.5 1.66699 -29.5 5s-13.5 10.666 -13.5 21.999c0 9.33301 3.5 16.833 10.5 22.5s15.333 9.83398 25 12.501
s19.834 4.33398 30.501 5.00098s19.667 1 27 1h18v-19z" />
    <glyph glyph-name="guillemotleft" unicode="&#xab;" horiz-adv-x="538" 
d="M268 422l-91 61l-159 -234l159 -234l91 61l-116 173zM510 422l-91 61l-159 -234l159 -234l91 61l-116 173z" />
    <glyph glyph-name="logicalnot" unicode="&#xac;" horiz-adv-x="666" 
d="M481 142h126v320h-548v-126h422v-194z" />
    <glyph glyph-name="registered" unicode="&#xae;" horiz-adv-x="800" 
d="M257 163l102.002 0.00195312v150h17l89 -150h105l-100 155c11.333 1.33301 22.5 4.16602 33.5 8.49902s20.667 10.666 29 18.999s15.166 19 20.499 32s8 29.5 8 49.5c0 31.333 -6.66699 55.5 -20 72.5s-29 29.5 -47 37.5s-36.333 12.667 -55 14s-33.334 2 -44.001 2h-138
v-390zM358.002 475.002l41 0.00390625c6 0 12.5 -0.333008 19.5 -1s13.5 -2.33398 19.5 -5.00098s11 -6.83398 15 -12.501s6 -13.5 6 -23.5s-2 -17.833 -6 -23.5s-9 -9.83398 -15 -12.501s-12.5 -4.33398 -19.5 -5.00098s-13.5 -1 -19.5 -1h-41v84zM28.002 354.006
c0 -51.333 9.83301 -99.5 29.5 -144.5s46.334 -84.333 80.001 -118s73 -60.334 118 -80.001s93.167 -29.5 144.5 -29.5s99.5 9.83301 144.5 29.5s84.333 46.334 118 80.001s60.334 73 80.001 118s29.5 93.167 29.5 144.5s-9.83301 99.5 -29.5 144.5
s-46.334 84.333 -80.001 118s-73 60.334 -118 80.001s-93.167 29.5 -144.5 29.5s-99.5 -9.83301 -144.5 -29.5s-84.333 -46.334 -118 -80.001s-60.334 -73 -80.001 -118s-29.5 -93.167 -29.5 -144.5zM130.002 354.006c0 38.667 7 75.167 21 109.5s33.333 64.166 58 89.499
s53.334 45.5 86.001 60.5s67.667 22.5 105 22.5s72.333 -7.5 105 -22.5s61.334 -35.167 86.001 -60.5s44 -55.166 58 -89.499s21 -70.833 21 -109.5s-7 -75.167 -21 -109.5s-33.333 -64.166 -58 -89.499s-53.334 -45.5 -86.001 -60.5s-67.667 -22.5 -105 -22.5
s-72.333 7.5 -105 22.5s-61.334 35.167 -86.001 60.5s-44 55.166 -58 89.499s-21 70.833 -21 109.5z" />
    <glyph glyph-name="macron" unicode="&#xaf;" 
d="M300 687h-340v-96h340v96z" />
    <glyph glyph-name="degree" unicode="&#xb0;" horiz-adv-x="400" 
d="M200 460c-24.667 0 -45.5 8.5 -62.5 25.5s-25.5 37.833 -25.5 62.5s8.5 45.5 25.5 62.5s37.833 25.5 62.5 25.5s45.5 -8.5 62.5 -25.5s25.5 -37.833 25.5 -62.5s-8.5 -45.5 -25.5 -62.5s-37.833 -25.5 -62.5 -25.5zM200 376c24 0 46.333 4.5 67 13.5
s38.834 21.333 54.501 37s28 33.834 37 54.501s13.5 43 13.5 67s-4.5 46.333 -13.5 67s-21.333 38.834 -37 54.501s-33.834 28 -54.501 37s-43 13.5 -67 13.5s-46.333 -4.5 -67 -13.5s-38.834 -21.333 -54.501 -37s-28 -33.834 -37 -54.501s-13.5 -43 -13.5 -67
s4.5 -46.333 13.5 -67s21.333 -38.834 37 -54.501s33.834 -28 54.501 -37s43 -13.5 67 -13.5z" />
    <glyph glyph-name="plusminus" unicode="&#xb1;" horiz-adv-x="666" 
d="M59 323h211v-128h126v128h211v126h-211v128h-126v-128h-211v-126zM59 29h548v126h-548v-126z" />
    <glyph glyph-name="twosuperior" unicode="&#xb2;" horiz-adv-x="385" 
d="M24 289h337.002v84h-201v2l140 108c10 7.33301 18.667 14.333 26 21s13.666 14.334 18.999 23.001s9.33301 18.667 12 30s4 25.666 4 42.999c0 19.333 -4 36.5 -12 51.5s-19.333 27.5 -34 37.5s-31.834 17.667 -51.501 23s-41.167 8 -64.5 8
c-48 0 -88 -11.167 -120 -33.5s-49.667 -57.166 -53 -104.499l102 -6c1.33301 15.333 7.83301 28.166 19.5 38.499s27.167 15.5 46.5 15.5c15.333 0 29 -3 41 -9s18 -16 18 -30c0 -10 -4.83301 -19.667 -14.5 -29s-19.167 -18 -28.5 -26l-186 -158v-89z" />
    <glyph glyph-name="threesuperior" unicode="&#xb3;" horiz-adv-x="385" 
d="M143 468l25 0.00292969c11.333 0 22.5 -0.333008 33.5 -1s20.833 -2.5 29.5 -5.5s15.667 -7.66699 21 -14s8 -15.166 8 -26.499c0 -17.333 -6.5 -29.666 -19.5 -36.999s-29.167 -11 -48.5 -11s-34.333 4.5 -45 13.5s-17.667 21.167 -21 36.5l-109 -22
c10 -42.667 30.667 -73 62 -91s69 -27 113 -27c24 0 46.667 2.66699 68 8s40 13.333 56 24s28.667 24 38 40s14 34.667 14 56c0 24.667 -8 46.667 -24 66s-38.667 30.666 -68 33.999v2c27.333 4.66699 48 15.5 62 32.5s21 37.167 21 60.5c0 19.333 -4.5 36.166 -13.5 50.499
s-21 26.166 -36 35.499s-32.5 16.333 -52.5 21s-40.667 7 -62 7c-41.333 0 -77.833 -8.33301 -109.5 -25s-53.167 -46.334 -64.5 -89.001l110 -20c3.33301 14 10.833 24.833 22.5 32.5s25.5 11.5 41.5 11.5c17.333 0 31 -2.83301 41 -8.5s15 -13.834 15 -24.501
c0 -9.33301 -2 -17 -6 -23s-9.5 -10.667 -16.5 -14s-15 -5.5 -24 -6.5s-18.167 -1.5 -27.5 -1.5h-34v-84z" />
    <glyph glyph-name="acute" unicode="&#xb4;" 
d="M30 564h132l173 144h-204z" />
    <glyph glyph-name="mu" unicode="&#xb5;" horiz-adv-x="574" 
d="M521 486l-150 0.00292969v-242c0 -16 -1 -31.333 -3 -46s-6.16699 -27.834 -12.5 -39.501s-15.5 -21 -27.5 -28s-27.667 -10.5 -47 -10.5s-34.166 4 -44.499 12s-18 18.333 -23 31s-8 26.5 -9 41.5s-1.5 29.5 -1.5 43.5v238h-150v-714h150v219
c8.66699 -2 18.667 -3 30 -3c18 0 34.667 2.33301 50 7s29 10.667 41 18s22.167 15.666 30.5 24.999s15.166 18.666 20.499 27.999h2v-66h144v486z" />
    <glyph glyph-name="paragraph" unicode="&#xb6;" horiz-adv-x="620" 
d="M236 -133h108v745h109v-745h108v841h-302c-34.667 0 -67 -2.5 -97 -7.5s-56 -14.167 -78 -27.5s-39.333 -31.5 -52 -54.5s-19 -52.5 -19 -88.5c0 -54 19 -96 57 -126s93.333 -45 166 -45v-492z" />
    <glyph glyph-name="periodcentered" unicode="&#xb7;" horiz-adv-x="296" 
d="M56 283c0 -12.667 2.33301 -24.667 7 -36s11.167 -21.166 19.5 -29.499s18.166 -14.833 29.499 -19.5s23.333 -7 36 -7s24.667 2.33301 36 7s21.166 11.167 29.499 19.5s14.833 18.166 19.5 29.499s7 23.333 7 36s-2.33301 24.667 -7 36s-11.167 21.166 -19.5 29.499
s-18.166 14.833 -29.499 19.5s-23.333 7 -36 7s-24.667 -2.33301 -36 -7s-21.166 -11.167 -29.499 -19.5s-14.833 -18.166 -19.5 -29.499s-7 -23.333 -7 -36z" />
    <glyph glyph-name="cedilla" unicode="&#xb8;" 
d="M168 0l-67 0.000976562l-62 -93l32 -29c12.667 5.33301 24.667 8 36 8c10 0 20.833 -2.66699 32.5 -8s17.5 -14 17.5 -26c0 -6.66699 -2 -12 -6 -16s-9.16699 -7.16699 -15.5 -9.5s-13.333 -4 -21 -5s-15.5 -1.5 -23.5 -1.5c-17.333 0 -32.5 2 -45.5 6
s-23.5 7.66699 -31.5 11l-25 -47c17.333 -8.66699 37.5 -15.834 60.5 -21.501s44.5 -8.5 64.5 -8.5c12.667 0 27 1.66699 43 5s31.167 8.66602 45.5 15.999s26.333 17.333 36 30s14.5 28 14.5 46c0 18.667 -3.83301 33.5 -11.5 44.5s-17.5 19.333 -29.5 25
s-25.5 9.33398 -40.5 11.001s-29.833 2.5 -44.5 2.5z" />
    <glyph glyph-name="onesuperior" unicode="&#xb9;" horiz-adv-x="385" 
d="M183 289h108v425h-96l-159 -117l58 -66l89 75v-317z" />
    <glyph glyph-name="ordmasculine" unicode="&#xba;" horiz-adv-x="397" 
d="M23 575c0 -24 4.5 -45.167 13.5 -63.5s21.333 -34 37 -47s34.167 -22.833 55.5 -29.5s44.333 -10 69 -10s47.667 3.33301 69 10s40 16.5 56 29.5s28.5 28.667 37.5 47s13.5 39.5 13.5 63.5c0 22.667 -4.5 43.334 -13.5 62.001s-21.5 34.5 -37.5 47.5
s-34.667 23.167 -56 30.5s-44.333 11 -69 11s-47.667 -3.66699 -69 -11s-39.833 -17.5 -55.5 -30.5s-28 -28.833 -37 -47.5s-13.5 -39.334 -13.5 -62.001zM125 575c0 18.667 6.50195 34.5 19.502 47.5s30.833 19.5 53.5 19.5s40.667 -6.5 54 -19.5s20 -28.833 20 -47.5
c0 -18 -6.66699 -33.5 -20 -46.5s-31.333 -19.5 -54 -19.5s-40.334 6.5 -53.001 19.5s-19.334 28.5 -20.001 46.5z" />
    <glyph glyph-name="guillemotright" unicode="&#xbb;" horiz-adv-x="538" 
d="M270 76l91 -61l159 234l-159 234l-91 -61l116 -173zM28 76l91 -61l159 234l-159 234l-91 -61l116 -173z" />
    <glyph glyph-name="onequarter" unicode="&#xbc;" horiz-adv-x="889" 
d="M716 0h108v85h57v84h-57v256h-118l-199 -262v-78h209v-85zM716 169h-101l99 136h2v-136zM155 289h108v425h-96l-159 -117l58 -66l89 75v-317zM189 11l76 -43l413 725l-84 47z" />
    <glyph glyph-name="onehalf" unicode="&#xbd;" horiz-adv-x="889" 
d="M155 289h108v425h-96l-159 -117l58 -66l89 75v-317zM544 0h337.002v84h-201v2l140 108c10 7.33301 18.667 14.333 26 21s13.666 14.334 18.999 23.001s9.33301 18.667 12 30s4 25.666 4 42.999c0 19.333 -4 36.5 -12 51.5s-19.333 27.5 -34 37.5
s-31.834 17.667 -51.501 23s-41.167 8 -64.5 8c-48 0 -88 -11.167 -120 -33.5s-49.667 -57.166 -53 -104.499l102 -6c1.33301 15.333 7.83301 28.166 19.5 38.499s27.167 15.5 46.5 15.5c15.333 0 29 -3 41 -9s18 -16 18 -30c0 -10 -4.83301 -19.667 -14.5 -29
s-19.167 -18 -28.5 -26l-186 -158v-89zM189.002 11l76 -43l413 725l-84 47z" />
    <glyph glyph-name="threequarters" unicode="&#xbe;" horiz-adv-x="889" 
d="M130 468l25.001 0.000976562c11.333 0 22.5 -0.333008 33.5 -1s20.833 -2.5 29.5 -5.5s15.667 -7.66699 21 -14s8 -15.166 8 -26.499c0 -17.333 -6.5 -29.666 -19.5 -36.999s-29.167 -11 -48.5 -11s-34.333 4.5 -45 13.5s-17.667 21.167 -21 36.5l-109 -22
c10 -42.667 30.667 -73 62 -91s69 -27 113 -27c24 0 46.667 2.66699 68 8s40 13.333 56 24s28.667 24 38 40s14 34.667 14 56c0 24.667 -8 46.667 -24 66s-38.667 30.666 -68 33.999v2c27.333 4.66699 48 15.5 62 32.5s21 37.167 21 60.5c0 19.333 -4.5 36.166 -13.5 50.499
s-21 26.166 -36 35.499s-32.5 16.333 -52.5 21s-40.667 7 -62 7c-20.667 0 -40.334 -2 -59.001 -6s-35.5 -10.5 -50.5 -19.5s-28 -20.667 -39 -35s-19.167 -32.166 -24.5 -53.499l109 -20c3.33301 14 10.833 24.833 22.5 32.5s25.5 11.5 41.5 11.5
c17.333 0 31 -2.83301 41 -8.5s15 -13.834 15 -24.501c0 -9.33301 -2 -17 -6 -23s-9.5 -10.667 -16.5 -14s-15 -5.5 -24 -6.5s-18.167 -1.5 -27.5 -1.5h-34v-84zM720.001 0.000976562h108v85h57v84h-57v256h-118l-199 -262v-78h209v-85zM720.001 169.001h-101l99 136h2v-136
zM213.001 11.001l76 -43l413 725l-84 47z" />
    <glyph glyph-name="questiondown" unicode="&#xbf;" horiz-adv-x="556" 
d="M340 252l-149.999 0.00195312v-29c0 -11.333 -2.66699 -22.666 -8 -33.999s-15.666 -23 -30.999 -35c-24 -18.667 -43.833 -35.834 -59.5 -51.501s-28.334 -31.167 -38.001 -46.5s-16.5 -31 -20.5 -47s-6 -33.333 -6 -52c0 -32 6 -60.333 18 -85
s28.167 -45.334 48.5 -62.001s44.166 -29.167 71.499 -37.5s56.333 -12.5 87 -12.5c70 0 127.333 18.5 172 55.5s70.667 90.833 78 161.5l-154 10c-2 -24.667 -11.167 -45.667 -27.5 -63s-40.166 -26 -71.499 -26c-20.667 0 -37.834 6.16699 -51.501 18.5
s-20.5 29.5 -20.5 51.5c0 11.333 3.16699 22.166 9.5 32.499s15.166 21.333 26.499 33s24.833 24.167 40.5 37.5s32.834 29 51.501 47c12.667 12 21.667 25 27 39s8 31 8 51v44zM357.001 400.002c0 12.667 -2.33301 24.667 -7 36s-11.167 21.166 -19.5 29.499
s-18.166 14.833 -29.499 19.5s-23.333 7 -36 7s-24.667 -2.33301 -36 -7s-21.166 -11.167 -29.499 -19.5s-14.833 -18.166 -19.5 -29.499s-7 -23.333 -7 -36s2.33301 -24.667 7 -36s11.167 -21.166 19.5 -29.499s18.166 -14.833 29.499 -19.5s23.333 -7 36 -7
s24.667 2.33301 36 7s21.166 11.167 29.499 19.5s14.833 18.166 19.5 29.499s7 23.333 7 36z" />
    <glyph glyph-name="Agrave" unicode="&#xc0;" horiz-adv-x="741" 
d="M-1 0h172l59 150h275l61 -150h176l-308 708h-129zM452 282h-173l86 220zM372 903h-204l173 -144h132z" />
    <glyph glyph-name="Aacute" unicode="&#xc1;" horiz-adv-x="741" 
d="M-1 0h172l59 150h275l61 -150h176l-308 708h-129zM452 282h-173l86 220zM271 759h132l173 144h-204z" />
    <glyph glyph-name="Acircumflex" unicode="&#xc2;" horiz-adv-x="741" 
d="M-1 0h172l59 150h275l61 -150h176l-308 708h-129zM452 282h-173l86 220zM570 759l-116 144h-163l-119 -144h135l62 78l63 -78h138z" />
    <glyph glyph-name="Atilde" unicode="&#xc3;" horiz-adv-x="741" 
d="M-1 0h172l59 150h275l61 -150h176l-308 708h-129zM452 282h-173l86 220zM254 765c3.33301 9.33301 8.33691 18.667 15.0039 28s15.667 14 27 14c10 0 20.167 -2.16699 30.5 -6.5s21.166 -9.16602 32.499 -14.499s23.5 -10.166 36.5 -14.499s26.833 -6.5 41.5 -6.5
c20.667 0 38.5 3.66699 53.5 11s27.667 17.166 38 29.499s18.5 26.833 24.5 43.5s10.667 34.667 14 54h-78c-4.66699 -10 -10.334 -18.5 -17.001 -25.5s-15.667 -10.5 -27 -10.5c-10 0 -19.5 1.66699 -28.5 5l-27.5 10c-14.667 6 -28.667 11 -42 15s-28.333 6 -45 6
c-18.667 0 -35.334 -4 -50.001 -12s-27.167 -18.5 -37.5 -31.5s-18.833 -27.833 -25.5 -44.5s-11.334 -33.334 -14.001 -50.001h79z" />
    <glyph glyph-name="Adieresis" unicode="&#xc4;" horiz-adv-x="741" 
d="M-1 0h172l59 150h275l61 -150h176l-308 708h-129zM452 282h-173l86 220zM266 753c24.667 0 44.999 8.33203 60.999 24.999s24 37 24 61s-8.66699 43.667 -26 59s-37.666 23 -60.999 23c-11.333 0 -21.833 -2.33301 -31.5 -7s-18.167 -10.667 -25.5 -18
s-13.166 -16 -17.499 -26s-6.5 -20.333 -6.5 -31c0 -11.333 2.16699 -22.166 6.5 -32.499s10.166 -19.5 17.499 -27.5s16 -14.333 26 -19s21 -7 33 -7zM473.999 752.999c24.667 0 44.999 8.33203 60.999 24.999s24 37 24 61s-8.66699 43.667 -26 59s-37.666 23 -60.999 23
c-11.333 0 -21.833 -2.33301 -31.5 -7s-18.167 -10.667 -25.5 -18s-13.166 -16 -17.499 -26s-6.5 -20.333 -6.5 -31c0 -11.333 2.16699 -22.166 6.5 -32.499s10.166 -19.5 17.499 -27.5s16 -14.333 26 -19s21 -7 33 -7z" />
    <glyph glyph-name="Aring" unicode="&#xc5;" horiz-adv-x="741" 
d="M-1 0h172l59 150h275l61 -150h176l-308 708h-129zM452 282h-173l86 220zM371 731c15.333 0 29.666 3 42.999 9s25 14 35 24s18 21.667 24 35s9 27.666 9 42.999s-3 29.666 -9 42.999s-14 25 -24 35s-21.667 18 -35 24s-27.666 9 -42.999 9s-29.666 -3 -42.999 -9
s-25 -14 -35 -24s-18 -21.667 -24 -35s-9 -27.666 -9 -42.999s3 -29.666 9 -42.999s14 -25 24 -35s21.667 -18 35 -24s27.666 -9 42.999 -9zM320 842c0 14 5 26 15 36s22 15 36 15s26 -5 36 -15s15 -22 15 -36s-5 -26 -15 -36s-22 -15 -36 -15s-26 5 -36 15s-15 22 -15 36z
" />
    <glyph glyph-name="AE" unicode="&#xc6;" horiz-adv-x="1037" 
d="M534 0h450v144h-294v144h258v144h-258v132h282v144h-538l-449 -708h191l95 150h263v-150zM534 282h-196l179 282h17v-282z" />
    <glyph glyph-name="Ccedilla" unicode="&#xc7;" horiz-adv-x="685" 
d="M655 622c-15.333 19.333 -32.665 35.666 -51.998 48.999s-39.5 24 -60.5 32s-42.333 13.833 -64 17.5s-42.5 5.5 -62.5 5.5c-55.333 0 -106.333 -8.66699 -153 -26s-87 -42.166 -121 -74.499s-60.5 -71.5 -79.5 -117.5s-28.5 -97.333 -28.5 -154
c0 -49.333 7.33301 -94.666 22 -135.999s35.167 -77.666 61.5 -108.999s57.833 -57.166 94.5 -77.499s77.334 -34.5 122.001 -42.5l-54 -82l32 -29c12.667 5.33301 24.667 8 36 8c10 0 20.833 -2.66699 32.5 -8s17.5 -14 17.5 -26c0 -6.66699 -2 -12 -6 -16
s-9.16699 -7.16699 -15.5 -9.5s-13.333 -4 -21 -5s-15.5 -1.5 -23.5 -1.5c-17.333 0 -32.5 2 -45.5 6s-23.5 7.66699 -31.5 11l-25 -47c17.333 -8.66699 37.5 -15.834 60.5 -21.501s44.5 -8.5 64.5 -8.5c12.667 0 27 1.66699 43 5s31.167 8.66602 45.5 15.999
s26.333 17.333 36 30s14.5 28 14.5 46c0 18.667 -3.83301 33.5 -11.5 44.5s-17.5 19.333 -29.5 25s-25.5 9.33398 -40.5 11.001s-29.833 2.5 -44.5 2.5l29 43c3.33301 -0.666992 6.33301 -1 9 -1h10c48.667 0 96 10 142 30s84 51 114 93l-130 97
c-16 -24 -36.333 -42.667 -61 -56s-53 -20 -85 -20c-28 0 -54.167 5.66699 -78.5 17s-45.5 27.166 -63.5 47.499s-32.167 44.333 -42.5 72s-15.5 58.167 -15.5 91.5c0 32.667 5.16699 63 15.5 91s24.666 52.167 42.999 72.5s40 36.166 65 47.499s52.167 17 81.5 17
s55.166 -5 77.499 -15s41.166 -24.333 56.499 -43z" />
    <glyph glyph-name="Egrave" unicode="&#xc8;" horiz-adv-x="630" 
d="M78 0h499v144h-343v144h307v144h-307v132h325v144h-481v-708zM316 903h-204l173 -144h132z" />
    <glyph glyph-name="Eacute" unicode="&#xc9;" horiz-adv-x="630" 
d="M78 0h499v144h-343v144h307v144h-307v132h325v144h-481v-708zM215 759h132l173 144h-204z" />
    <glyph glyph-name="Ecircumflex" unicode="&#xca;" horiz-adv-x="630" 
d="M78 0h499v144h-343v144h307v144h-307v132h325v144h-481v-708zM514 759l-116 144h-163l-119 -144h135l62 78l63 -78h138z" />
    <glyph glyph-name="Edieresis" unicode="&#xcb;" horiz-adv-x="630" 
d="M78 0h499v144h-343v144h307v144h-307v132h325v144h-481v-708zM210 753c24.667 0 44.999 8.33203 60.999 24.999s24 37 24 61s-8.66699 43.667 -26 59s-37.666 23 -60.999 23c-11.333 0 -21.833 -2.33301 -31.5 -7s-18.167 -10.667 -25.5 -18s-13.166 -16 -17.499 -26
s-6.5 -20.333 -6.5 -31c0 -11.333 2.16699 -22.166 6.5 -32.499s10.166 -19.5 17.499 -27.5s16 -14.333 26 -19s21 -7 33 -7zM417.999 752.999c24.667 0 44.999 8.33203 60.999 24.999s24 37 24 61s-8.66699 43.667 -26 59s-37.666 23 -60.999 23
c-11.333 0 -21.833 -2.33301 -31.5 -7s-18.167 -10.667 -25.5 -18s-13.166 -16 -17.499 -26s-6.5 -20.333 -6.5 -31c0 -11.333 2.16699 -22.166 6.5 -32.499s10.166 -19.5 17.499 -27.5s16 -14.333 26 -19s21 -7 33 -7z" />
    <glyph glyph-name="Igrave" unicode="&#xcc;" horiz-adv-x="296" 
d="M70 0h156v708h-156v-708zM149 903h-204l173 -144h132z" />
    <glyph glyph-name="Iacute" unicode="&#xcd;" horiz-adv-x="296" 
d="M70 0h156v708h-156v-708zM48 759h132l173 144h-204z" />
    <glyph glyph-name="Icircumflex" unicode="&#xce;" horiz-adv-x="296" 
d="M70 0h156v708h-156v-708zM347 759l-116 144h-163l-119 -144h135l62 78l63 -78h138z" />
    <glyph glyph-name="Idieresis" unicode="&#xcf;" horiz-adv-x="296" 
d="M70 0h156v708h-156v-708zM43 753c24.667 0 44.999 8.33203 60.999 24.999s24 37 24 61s-8.66699 43.667 -26 59s-37.666 23 -60.999 23c-11.333 0 -21.833 -2.33301 -31.5 -7s-18.167 -10.667 -25.5 -18s-13.166 -16 -17.499 -26s-6.5 -20.333 -6.5 -31
c0 -11.333 2.16699 -22.166 6.5 -32.499s10.166 -19.5 17.499 -27.5s16 -14.333 26 -19s21 -7 33 -7zM250.999 752.999c24.667 0 44.999 8.33203 60.999 24.999s24 37 24 61s-8.66699 43.667 -26 59s-37.666 23 -60.999 23c-11.333 0 -21.833 -2.33301 -31.5 -7
s-18.167 -10.667 -25.5 -18s-13.166 -16 -17.499 -26s-6.5 -20.333 -6.5 -31c0 -11.333 2.16699 -22.166 6.5 -32.499s10.166 -19.5 17.499 -27.5s16 -14.333 26 -19s21 -7 33 -7z" />
    <glyph glyph-name="Eth" unicode="&#xd0;" horiz-adv-x="759" 
d="M228 564l91.999 0.00195312c32.667 0 63.834 -4.16699 93.501 -12.5s55.5 -20.833 77.5 -37.5s39.5 -37.834 52.5 -63.501s19.5 -55.834 19.5 -90.501c0 -40 -6.5 -73.833 -19.5 -101.5s-30.833 -50 -53.5 -67s-49.5 -29.167 -80.5 -36.5s-64.5 -11 -100.5 -11h-81v174
h198v102h-198v144zM71.999 0.00195312h254.999c52.667 0 103 7.66699 151 23s90.333 37.833 127 67.5s65.834 66.334 87.501 110.001s32.5 94.167 32.5 151.5c0 64.667 -11.167 119.667 -33.5 165s-52.5 82.166 -90.5 110.499s-82.5 48.833 -133.5 61.5
s-104.833 19 -161.5 19h-234v-288h-60v-102h60v-318z" />
    <glyph glyph-name="Ntilde" unicode="&#xd1;" horiz-adv-x="815" 
d="M72 0h156v504h2l309 -504h204v708h-156v-492h-2l-301 492h-212v-708zM291 765c3.33301 9.33301 8.33691 18.667 15.0039 28s15.667 14 27 14c10 0 20.167 -2.16699 30.5 -6.5s21.166 -9.16602 32.499 -14.499s23.5 -10.166 36.5 -14.499s26.833 -6.5 41.5 -6.5
c20.667 0 38.5 3.66699 53.5 11s27.667 17.166 38 29.499s18.5 26.833 24.5 43.5s10.667 34.667 14 54h-78c-4.66699 -10 -10.334 -18.5 -17.001 -25.5s-15.667 -10.5 -27 -10.5c-10 0 -19.5 1.66699 -28.5 5l-27.5 10c-14.667 6 -28.667 11 -42 15s-28.333 6 -45 6
c-18.667 0 -35.334 -4 -50.001 -12s-27.167 -18.5 -37.5 -31.5s-18.833 -27.833 -25.5 -44.5s-11.334 -33.334 -14.001 -50.001h79z" />
    <glyph glyph-name="Ograve" unicode="&#xd2;" horiz-adv-x="832" 
d="M34 354c0 -56.667 9.5 -108 28.5 -154s45.5 -85.167 79.5 -117.5s74.333 -57.166 121 -74.499s97.667 -26 153 -26s106.333 8.66699 153 26s87 42.166 121 74.499s60.5 71.5 79.5 117.5s28.5 97.333 28.5 154s-9.5 108 -28.5 154s-45.5 85.167 -79.5 117.5
s-74.333 57.166 -121 74.499s-97.667 26 -153 26s-106.333 -8.66699 -153 -26s-87 -42.166 -121 -74.499s-60.5 -71.5 -79.5 -117.5s-28.5 -97.333 -28.5 -154zM196 354c0 32.667 5.16699 63 15.5 91s25.166 52.167 44.499 72.5s42.5 36.166 69.5 47.499s57.167 17 90.5 17
s63.5 -5.66699 90.5 -17s50.167 -27.166 69.5 -47.499s34.166 -44.5 44.499 -72.5s15.5 -58.333 15.5 -91c0 -33.333 -5.16699 -63.833 -15.5 -91.5s-25.166 -51.667 -44.499 -72s-42.5 -36.166 -69.5 -47.499s-57.167 -17 -90.5 -17s-63.5 5.66699 -90.5 17
s-50.167 27.166 -69.5 47.499s-34.166 44.333 -44.499 72s-15.5 58.167 -15.5 91.5zM417 903h-204l173 -144h132z" />
    <glyph glyph-name="Oacute" unicode="&#xd3;" horiz-adv-x="832" 
d="M34 354c0 -56.667 9.5 -108 28.5 -154s45.5 -85.167 79.5 -117.5s74.333 -57.166 121 -74.499s97.667 -26 153 -26s106.333 8.66699 153 26s87 42.166 121 74.499s60.5 71.5 79.5 117.5s28.5 97.333 28.5 154s-9.5 108 -28.5 154s-45.5 85.167 -79.5 117.5
s-74.333 57.166 -121 74.499s-97.667 26 -153 26s-106.333 -8.66699 -153 -26s-87 -42.166 -121 -74.499s-60.5 -71.5 -79.5 -117.5s-28.5 -97.333 -28.5 -154zM196 354c0 32.667 5.16699 63 15.5 91s25.166 52.167 44.499 72.5s42.5 36.166 69.5 47.499s57.167 17 90.5 17
s63.5 -5.66699 90.5 -17s50.167 -27.166 69.5 -47.499s34.166 -44.5 44.499 -72.5s15.5 -58.333 15.5 -91c0 -33.333 -5.16699 -63.833 -15.5 -91.5s-25.166 -51.667 -44.499 -72s-42.5 -36.166 -69.5 -47.499s-57.167 -17 -90.5 -17s-63.5 5.66699 -90.5 17
s-50.167 27.166 -69.5 47.499s-34.166 44.333 -44.499 72s-15.5 58.167 -15.5 91.5zM316 759h132l173 144h-204z" />
    <glyph glyph-name="Ocircumflex" unicode="&#xd4;" horiz-adv-x="832" 
d="M34 354c0 -56.667 9.5 -108 28.5 -154s45.5 -85.167 79.5 -117.5s74.333 -57.166 121 -74.499s97.667 -26 153 -26s106.333 8.66699 153 26s87 42.166 121 74.499s60.5 71.5 79.5 117.5s28.5 97.333 28.5 154s-9.5 108 -28.5 154s-45.5 85.167 -79.5 117.5
s-74.333 57.166 -121 74.499s-97.667 26 -153 26s-106.333 -8.66699 -153 -26s-87 -42.166 -121 -74.499s-60.5 -71.5 -79.5 -117.5s-28.5 -97.333 -28.5 -154zM196 354c0 32.667 5.16699 63 15.5 91s25.166 52.167 44.499 72.5s42.5 36.166 69.5 47.499s57.167 17 90.5 17
s63.5 -5.66699 90.5 -17s50.167 -27.166 69.5 -47.499s34.166 -44.5 44.499 -72.5s15.5 -58.333 15.5 -91c0 -33.333 -5.16699 -63.833 -15.5 -91.5s-25.166 -51.667 -44.499 -72s-42.5 -36.166 -69.5 -47.499s-57.167 -17 -90.5 -17s-63.5 5.66699 -90.5 17
s-50.167 27.166 -69.5 47.499s-34.166 44.333 -44.499 72s-15.5 58.167 -15.5 91.5zM615 759l-116 144h-163l-119 -144h135l62 78l63 -78h138z" />
    <glyph glyph-name="Otilde" unicode="&#xd5;" horiz-adv-x="832" 
d="M34 354c0 -56.667 9.5 -108 28.5 -154s45.5 -85.167 79.5 -117.5s74.333 -57.166 121 -74.499s97.667 -26 153 -26s106.333 8.66699 153 26s87 42.166 121 74.499s60.5 71.5 79.5 117.5s28.5 97.333 28.5 154s-9.5 108 -28.5 154s-45.5 85.167 -79.5 117.5
s-74.333 57.166 -121 74.499s-97.667 26 -153 26s-106.333 -8.66699 -153 -26s-87 -42.166 -121 -74.499s-60.5 -71.5 -79.5 -117.5s-28.5 -97.333 -28.5 -154zM196 354c0 32.667 5.16699 63 15.5 91s25.166 52.167 44.499 72.5s42.5 36.166 69.5 47.499s57.167 17 90.5 17
s63.5 -5.66699 90.5 -17s50.167 -27.166 69.5 -47.499s34.166 -44.5 44.499 -72.5s15.5 -58.333 15.5 -91c0 -33.333 -5.16699 -63.833 -15.5 -91.5s-25.166 -51.667 -44.499 -72s-42.5 -36.166 -69.5 -47.499s-57.167 -17 -90.5 -17s-63.5 5.66699 -90.5 17
s-50.167 27.166 -69.5 47.499s-34.166 44.333 -44.499 72s-15.5 58.167 -15.5 91.5zM299 765c3.33301 9.33301 8.33691 18.667 15.0039 28s15.667 14 27 14c10 0 20.167 -2.16699 30.5 -6.5s21.166 -9.16602 32.499 -14.499s23.5 -10.166 36.5 -14.499
s26.833 -6.5 41.5 -6.5c20.667 0 38.5 3.66699 53.5 11s27.667 17.166 38 29.499s18.5 26.833 24.5 43.5s10.667 34.667 14 54h-78c-4.66699 -10 -10.334 -18.5 -17.001 -25.5s-15.667 -10.5 -27 -10.5c-10 0 -19.5 1.66699 -28.5 5l-27.5 10c-14.667 6 -28.667 11 -42 15
s-28.333 6 -45 6c-18.667 0 -35.334 -4 -50.001 -12s-27.167 -18.5 -37.5 -31.5s-18.833 -27.833 -25.5 -44.5s-11.334 -33.334 -14.001 -50.001h79z" />
    <glyph glyph-name="Odieresis" unicode="&#xd6;" horiz-adv-x="832" 
d="M34 354c0 -56.667 9.5 -108 28.5 -154s45.5 -85.167 79.5 -117.5s74.333 -57.166 121 -74.499s97.667 -26 153 -26s106.333 8.66699 153 26s87 42.166 121 74.499s60.5 71.5 79.5 117.5s28.5 97.333 28.5 154s-9.5 108 -28.5 154s-45.5 85.167 -79.5 117.5
s-74.333 57.166 -121 74.499s-97.667 26 -153 26s-106.333 -8.66699 -153 -26s-87 -42.166 -121 -74.499s-60.5 -71.5 -79.5 -117.5s-28.5 -97.333 -28.5 -154zM196 354c0 32.667 5.16699 63 15.5 91s25.166 52.167 44.499 72.5s42.5 36.166 69.5 47.499s57.167 17 90.5 17
s63.5 -5.66699 90.5 -17s50.167 -27.166 69.5 -47.499s34.166 -44.5 44.499 -72.5s15.5 -58.333 15.5 -91c0 -33.333 -5.16699 -63.833 -15.5 -91.5s-25.166 -51.667 -44.499 -72s-42.5 -36.166 -69.5 -47.499s-57.167 -17 -90.5 -17s-63.5 5.66699 -90.5 17
s-50.167 27.166 -69.5 47.499s-34.166 44.333 -44.499 72s-15.5 58.167 -15.5 91.5zM311 753c24.667 0 44.999 8.33203 60.999 24.999s24 37 24 61s-8.66699 43.667 -26 59s-37.666 23 -60.999 23c-11.333 0 -21.833 -2.33301 -31.5 -7s-18.167 -10.667 -25.5 -18
s-13.166 -16 -17.499 -26s-6.5 -20.333 -6.5 -31c0 -11.333 2.16699 -22.166 6.5 -32.499s10.166 -19.5 17.499 -27.5s16 -14.333 26 -19s21 -7 33 -7zM518.999 752.999c24.667 0 44.999 8.33203 60.999 24.999s24 37 24 61s-8.66699 43.667 -26 59s-37.666 23 -60.999 23
c-11.333 0 -21.833 -2.33301 -31.5 -7s-18.167 -10.667 -25.5 -18s-13.166 -16 -17.499 -26s-6.5 -20.333 -6.5 -31c0 -11.333 2.16699 -22.166 6.5 -32.499s10.166 -19.5 17.499 -27.5s16 -14.333 26 -19s21 -7 33 -7z" />
    <glyph glyph-name="multiply" unicode="&#xd7;" horiz-adv-x="666" 
d="M64 475l178 -172l-174 -181l89 -86l177 177l176 -176l92 93l-180 173l173 180l-89 86l-172 -174l-177 175z" />
    <glyph glyph-name="Oslash" unicode="&#xd8;" horiz-adv-x="832" 
d="M34 -3l56 -48l93 101c30.667 -21.333 65.667 -38 105 -50s82 -18 128 -18c55.333 0 106.333 8.66699 153 26s87 42.166 121 74.499s60.5 71.5 79.5 117.5s28.5 97.333 28.5 154c0 54 -8.5 103 -25.5 147s-41.167 82 -72.5 114l90 98l-55 49l-92 -100
c-64 42.667 -139.667 64 -227 64c-55.333 0 -106.333 -8.66699 -153 -26s-87 -42.166 -121 -74.499s-60.5 -71.5 -79.5 -117.5s-28.5 -97.333 -28.5 -154c0 -52 8 -99.5 24 -142.5s39 -80.5 69 -112.5zM235 217c-26 39.333 -38.999 85.001 -38.999 137.001
c0 32.667 5.16699 63 15.5 91s25.166 52.167 44.499 72.5s42.5 36.166 69.5 47.499s57.167 17 90.5 17c46.667 0 87.667 -11.333 123 -34zM592.001 497.001c14 -18.667 24.832 -40.168 32.499 -64.501s11.5 -50.5 11.5 -78.5c0 -33.333 -5.16699 -63.833 -15.5 -91.5
s-25.166 -51.667 -44.499 -72s-42.5 -36.166 -69.5 -47.499s-57.167 -17 -90.5 -17c-25.333 0 -48.833 3.33301 -70.5 10s-41.167 16 -58.5 28z" />
    <glyph glyph-name="Ugrave" unicode="&#xd9;" horiz-adv-x="741" 
d="M669 708h-155.997v-429c0 -22 -3.5 -42.333 -10.5 -61s-16.833 -34.834 -29.5 -48.501s-27.667 -24.334 -45 -32.001s-36.333 -11.5 -57 -11.5s-39.834 3.83301 -57.501 11.5s-32.834 18.334 -45.501 32.001s-22.5 29.834 -29.5 48.501s-10.5 39 -10.5 61v429h-156v-435
c0 -42 6.33301 -80.667 19 -116s31.5 -66 56.5 -92s56.167 -46.333 93.5 -61s80.666 -22 129.999 -22c48.667 0 91.667 7.33301 129 22s68.5 35 93.5 61s43.833 56.667 56.5 92s19 74 19 116v435zM372.003 903h-204l173 -144h132z" />
    <glyph glyph-name="Uacute" unicode="&#xda;" horiz-adv-x="741" 
d="M669 708h-155.997v-429c0 -22 -3.5 -42.333 -10.5 -61s-16.833 -34.834 -29.5 -48.501s-27.667 -24.334 -45 -32.001s-36.333 -11.5 -57 -11.5s-39.834 3.83301 -57.501 11.5s-32.834 18.334 -45.501 32.001s-22.5 29.834 -29.5 48.501s-10.5 39 -10.5 61v429h-156v-435
c0 -42 6.33301 -80.667 19 -116s31.5 -66 56.5 -92s56.167 -46.333 93.5 -61s80.666 -22 129.999 -22c48.667 0 91.667 7.33301 129 22s68.5 35 93.5 61s43.833 56.667 56.5 92s19 74 19 116v435zM271.003 759h132l173 144h-204z" />
    <glyph glyph-name="Ucircumflex" unicode="&#xdb;" horiz-adv-x="741" 
d="M669 708h-155.997v-429c0 -22 -3.5 -42.333 -10.5 -61s-16.833 -34.834 -29.5 -48.501s-27.667 -24.334 -45 -32.001s-36.333 -11.5 -57 -11.5s-39.834 3.83301 -57.501 11.5s-32.834 18.334 -45.501 32.001s-22.5 29.834 -29.5 48.501s-10.5 39 -10.5 61v429h-156v-435
c0 -42 6.33301 -80.667 19 -116s31.5 -66 56.5 -92s56.167 -46.333 93.5 -61s80.666 -22 129.999 -22c48.667 0 91.667 7.33301 129 22s68.5 35 93.5 61s43.833 56.667 56.5 92s19 74 19 116v435zM570.003 759l-116 144h-163l-119 -144h135l62 78l63 -78h138z" />
    <glyph glyph-name="Udieresis" unicode="&#xdc;" horiz-adv-x="741" 
d="M669 708h-155.997v-429c0 -22 -3.5 -42.333 -10.5 -61s-16.833 -34.834 -29.5 -48.501s-27.667 -24.334 -45 -32.001s-36.333 -11.5 -57 -11.5s-39.834 3.83301 -57.501 11.5s-32.834 18.334 -45.501 32.001s-22.5 29.834 -29.5 48.501s-10.5 39 -10.5 61v429h-156v-435
c0 -42 6.33301 -80.667 19 -116s31.5 -66 56.5 -92s56.167 -46.333 93.5 -61s80.666 -22 129.999 -22c48.667 0 91.667 7.33301 129 22s68.5 35 93.5 61s43.833 56.667 56.5 92s19 74 19 116v435zM266.003 753c24.667 0 44.999 8.33203 60.999 24.999s24 37 24 61
s-8.66699 43.667 -26 59s-37.666 23 -60.999 23c-11.333 0 -21.833 -2.33301 -31.5 -7s-18.167 -10.667 -25.5 -18s-13.166 -16 -17.499 -26s-6.5 -20.333 -6.5 -31c0 -11.333 2.16699 -22.166 6.5 -32.499s10.166 -19.5 17.499 -27.5s16 -14.333 26 -19s21 -7 33 -7z
M474.002 752.999c24.667 0 44.999 8.33203 60.999 24.999s24 37 24 61s-8.66699 43.667 -26 59s-37.666 23 -60.999 23c-11.333 0 -21.833 -2.33301 -31.5 -7s-18.167 -10.667 -25.5 -18s-13.166 -16 -17.499 -26s-6.5 -20.333 -6.5 -31
c0 -11.333 2.16699 -22.166 6.5 -32.499s10.166 -19.5 17.499 -27.5s16 -14.333 26 -19s21 -7 33 -7z" />
    <glyph glyph-name="Yacute" unicode="&#xdd;" horiz-adv-x="648" 
d="M246 0h156v302l266 406h-185l-159 -265l-150 265h-194l266 -406v-302zM224 786h132l173 144h-204z" />
    <glyph glyph-name="Thorn" unicode="&#xde;" horiz-adv-x="630" 
d="M72 0h156.001v150h114c37.333 0 72 3.5 104 10.5s59.667 18.833 83 35.5s41.666 39 54.999 67s20 62.667 20 104c0 42 -7.16699 76.833 -21.5 104.5s-33.666 49.667 -57.999 66s-52.833 27.833 -85.5 34.5s-67.334 10 -104.001 10h-107v126h-156v-708zM228.001 450
h79.999c14.667 0 30 -0.833008 46 -2.5s30.5 -5.5 43.5 -11.5s23.667 -14.5 32 -25.5s12.5 -25.5 12.5 -43.5c0 -16.667 -3.16699 -30.5 -9.5 -41.5s-14.666 -19.667 -24.999 -26s-22 -10.833 -35 -13.5s-26.5 -4 -40.5 -4h-104v168z" />
    <glyph glyph-name="germandbls" unicode="&#xdf;" horiz-adv-x="630" 
d="M53 0l150 0.00195312v538c0 30 9.33301 53.833 28 71.5s43.334 26.5 74.001 26.5c12 0 23.333 -1.66699 34 -5s20.334 -8.33301 29.001 -15s15.5 -14.834 20.5 -24.501s7.5 -20.834 7.5 -33.501c0 -26 -8.83301 -45.667 -26.5 -59s-39.167 -20 -64.5 -20h-12v-126h20
c39.333 0 72 -9.66699 98 -29s39 -50.333 39 -93c0 -20 -3.66699 -37.333 -11 -52s-17.333 -26.834 -30 -36.501s-27.334 -16.834 -44.001 -21.501s-34.334 -7 -53.001 -7c-15.333 0 -31.666 2.66699 -48.999 8v-122c30.667 -8 61.667 -12 93 -12
c34.667 0 66.5 5.33301 95.5 16s54 25.834 75 45.501s37.5 43.667 49.5 72s18 60.166 18 95.499c0 52 -12.833 96.667 -38.5 134s-64.834 61.333 -117.501 72v2c36 14.667 62 35.334 78 62.001s24 59.334 24 98.001c0 32 -6.66699 59.5 -20 82.5s-31 42 -53 57
s-46.833 26 -74.5 33s-55.5 10.5 -83.5 10.5c-170.667 0 -256 -85 -256 -255v-513z" />
    <glyph glyph-name="agrave" unicode="&#xe0;" horiz-adv-x="537" 
d="M358 0l137.998 0.00292969v247c0 40.667 -3.33301 76.5 -10 107.5s-18.5 57.167 -35.5 78.5s-39.667 37.5 -68 48.5s-64.5 16.5 -108.5 16.5c-40 0 -78.667 -6.5 -116 -19.5s-70 -32.5 -98 -58.5l80 -82c16 18 34.167 32.167 54.5 42.5s42.833 15.5 67.5 15.5
c26 0 48.5 -7.83301 67.5 -23.5s28.5 -36.834 28.5 -63.501c-20.667 0 -43.167 -0.333008 -67.5 -1s-48.666 -2.66699 -72.999 -6s-47.833 -8.5 -70.5 -15.5s-42.834 -16.833 -60.501 -29.5s-31.667 -28.667 -42 -48s-15.5 -43 -15.5 -71
c0 -24.667 4.66699 -46.334 14 -65.001s22 -34.334 38 -47.001s34.5 -22.167 55.5 -28.5s42.833 -9.5 65.5 -9.5c30.667 0 59.834 5.66699 87.501 17s49.834 30 66.501 56h2v-61zM357.998 213.003l0.00195312 -32.002c0 -15.333 -3.16699 -28.666 -9.5 -39.999
s-14.833 -20.666 -25.5 -27.999s-22.834 -13 -36.501 -17s-27.834 -6 -42.501 -6c-16.667 0 -32.667 4.33301 -48 13s-23 22 -23 40c0 16.667 5.5 29.667 16.5 39s24.333 16.333 40 21s32 7.5 49 8.5s31.167 1.5 42.5 1.5h37zM270 708.001h-204l173 -144h132z" />
    <glyph glyph-name="aacute" unicode="&#xe1;" horiz-adv-x="537" 
d="M358 0l137.998 0.00292969v247c0 40.667 -3.33301 76.5 -10 107.5s-18.5 57.167 -35.5 78.5s-39.667 37.5 -68 48.5s-64.5 16.5 -108.5 16.5c-40 0 -78.667 -6.5 -116 -19.5s-70 -32.5 -98 -58.5l80 -82c16 18 34.167 32.167 54.5 42.5s42.833 15.5 67.5 15.5
c26 0 48.5 -7.83301 67.5 -23.5s28.5 -36.834 28.5 -63.501c-20.667 0 -43.167 -0.333008 -67.5 -1s-48.666 -2.66699 -72.999 -6s-47.833 -8.5 -70.5 -15.5s-42.834 -16.833 -60.501 -29.5s-31.667 -28.667 -42 -48s-15.5 -43 -15.5 -71
c0 -24.667 4.66699 -46.334 14 -65.001s22 -34.334 38 -47.001s34.5 -22.167 55.5 -28.5s42.833 -9.5 65.5 -9.5c30.667 0 59.834 5.66699 87.501 17s49.834 30 66.501 56h2v-61zM357.998 213.003l0.00195312 -32.002c0 -15.333 -3.16699 -28.666 -9.5 -39.999
s-14.833 -20.666 -25.5 -27.999s-22.834 -13 -36.501 -17s-27.834 -6 -42.501 -6c-16.667 0 -32.667 4.33301 -48 13s-23 22 -23 40c0 16.667 5.5 29.667 16.5 39s24.333 16.333 40 21s32 7.5 49 8.5s31.167 1.5 42.5 1.5h37zM169 564.001h132l173 144h-204z" />
    <glyph glyph-name="acircumflex" unicode="&#xe2;" horiz-adv-x="537" 
d="M358 0l137.998 0.00292969v247c0 40.667 -3.33301 76.5 -10 107.5s-18.5 57.167 -35.5 78.5s-39.667 37.5 -68 48.5s-64.5 16.5 -108.5 16.5c-40 0 -78.667 -6.5 -116 -19.5s-70 -32.5 -98 -58.5l80 -82c16 18 34.167 32.167 54.5 42.5s42.833 15.5 67.5 15.5
c26 0 48.5 -7.83301 67.5 -23.5s28.5 -36.834 28.5 -63.501c-20.667 0 -43.167 -0.333008 -67.5 -1s-48.666 -2.66699 -72.999 -6s-47.833 -8.5 -70.5 -15.5s-42.834 -16.833 -60.501 -29.5s-31.667 -28.667 -42 -48s-15.5 -43 -15.5 -71
c0 -24.667 4.66699 -46.334 14 -65.001s22 -34.334 38 -47.001s34.5 -22.167 55.5 -28.5s42.833 -9.5 65.5 -9.5c30.667 0 59.834 5.66699 87.501 17s49.834 30 66.501 56h2v-61zM357.998 213.003l0.00195312 -32.002c0 -15.333 -3.16699 -28.666 -9.5 -39.999
s-14.833 -20.666 -25.5 -27.999s-22.834 -13 -36.501 -17s-27.834 -6 -42.501 -6c-16.667 0 -32.667 4.33301 -48 13s-23 22 -23 40c0 16.667 5.5 29.667 16.5 39s24.333 16.333 40 21s32 7.5 49 8.5s31.167 1.5 42.5 1.5h37zM468 564.001l-116 144h-163l-119 -144h135
l62 78l63 -78h138z" />
    <glyph glyph-name="atilde" unicode="&#xe3;" horiz-adv-x="537" 
d="M358 0l137.998 0.00292969v247c0 40.667 -3.33301 76.5 -10 107.5s-18.5 57.167 -35.5 78.5s-39.667 37.5 -68 48.5s-64.5 16.5 -108.5 16.5c-40 0 -78.667 -6.5 -116 -19.5s-70 -32.5 -98 -58.5l80 -82c16 18 34.167 32.167 54.5 42.5s42.833 15.5 67.5 15.5
c26 0 48.5 -7.83301 67.5 -23.5s28.5 -36.834 28.5 -63.501c-20.667 0 -43.167 -0.333008 -67.5 -1s-48.666 -2.66699 -72.999 -6s-47.833 -8.5 -70.5 -15.5s-42.834 -16.833 -60.501 -29.5s-31.667 -28.667 -42 -48s-15.5 -43 -15.5 -71
c0 -24.667 4.66699 -46.334 14 -65.001s22 -34.334 38 -47.001s34.5 -22.167 55.5 -28.5s42.833 -9.5 65.5 -9.5c30.667 0 59.834 5.66699 87.501 17s49.834 30 66.501 56h2v-61zM357.998 213.003l0.00195312 -32.002c0 -15.333 -3.16699 -28.666 -9.5 -39.999
s-14.833 -20.666 -25.5 -27.999s-22.834 -13 -36.501 -17s-27.834 -6 -42.501 -6c-16.667 0 -32.667 4.33301 -48 13s-23 22 -23 40c0 16.667 5.5 29.667 16.5 39s24.333 16.333 40 21s32 7.5 49 8.5s31.167 1.5 42.5 1.5h37zM152 570.001
c3.33301 9.33301 8.33691 18.667 15.0039 28s15.667 14 27 14c10 0 20.167 -2.16699 30.5 -6.5s21.166 -9.16602 32.499 -14.499s23.5 -10.166 36.5 -14.499s26.833 -6.5 41.5 -6.5c20.667 0 38.5 3.66699 53.5 11s27.667 17.166 38 29.499s18.5 26.833 24.5 43.5
s10.667 34.667 14 54h-78c-4.66699 -10 -10.334 -18.5 -17.001 -25.5s-15.667 -10.5 -27 -10.5c-10 0 -19.5 1.66699 -28.5 5l-27.5 10c-14.667 6 -28.667 11 -42 15s-28.333 6 -45 6c-18.667 0 -35.334 -4 -50.001 -12s-27.167 -18.5 -37.5 -31.5
s-18.833 -27.833 -25.5 -44.5s-11.334 -33.334 -14.001 -50.001h79z" />
    <glyph glyph-name="adieresis" unicode="&#xe4;" horiz-adv-x="537" 
d="M358 0l137.998 0.00292969v247c0 40.667 -3.33301 76.5 -10 107.5s-18.5 57.167 -35.5 78.5s-39.667 37.5 -68 48.5s-64.5 16.5 -108.5 16.5c-40 0 -78.667 -6.5 -116 -19.5s-70 -32.5 -98 -58.5l80 -82c16 18 34.167 32.167 54.5 42.5s42.833 15.5 67.5 15.5
c26 0 48.5 -7.83301 67.5 -23.5s28.5 -36.834 28.5 -63.501c-20.667 0 -43.167 -0.333008 -67.5 -1s-48.666 -2.66699 -72.999 -6s-47.833 -8.5 -70.5 -15.5s-42.834 -16.833 -60.501 -29.5s-31.667 -28.667 -42 -48s-15.5 -43 -15.5 -71
c0 -24.667 4.66699 -46.334 14 -65.001s22 -34.334 38 -47.001s34.5 -22.167 55.5 -28.5s42.833 -9.5 65.5 -9.5c30.667 0 59.834 5.66699 87.501 17s49.834 30 66.501 56h2v-61zM357.998 213.003l0.00195312 -32.002c0 -15.333 -3.16699 -28.666 -9.5 -39.999
s-14.833 -20.666 -25.5 -27.999s-22.834 -13 -36.501 -17s-27.834 -6 -42.501 -6c-16.667 0 -32.667 4.33301 -48 13s-23 22 -23 40c0 16.667 5.5 29.667 16.5 39s24.333 16.333 40 21s32 7.5 49 8.5s31.167 1.5 42.5 1.5h37zM164 558.001
c24.667 0 44.999 8.33203 60.999 24.999s24 37 24 61s-8.66699 43.667 -26 59s-37.666 23 -60.999 23c-11.333 0 -21.833 -2.33301 -31.5 -7s-18.167 -10.667 -25.5 -18s-13.166 -16 -17.499 -26s-6.5 -20.333 -6.5 -31c0 -11.333 2.16699 -22.166 6.5 -32.499
s10.166 -19.5 17.499 -27.5s16 -14.333 26 -19s21 -7 33 -7zM371.999 558c24.667 0 44.999 8.33203 60.999 24.999s24 37 24 61s-8.66699 43.667 -26 59s-37.666 23 -60.999 23c-11.333 0 -21.833 -2.33301 -31.5 -7s-18.167 -10.667 -25.5 -18s-13.166 -16 -17.499 -26
s-6.5 -20.333 -6.5 -31c0 -11.333 2.16699 -22.166 6.5 -32.499s10.166 -19.5 17.499 -27.5s16 -14.333 26 -19s21 -7 33 -7z" />
    <glyph glyph-name="aring" unicode="&#xe5;" horiz-adv-x="537" 
d="M358 0l137.998 0.00292969v247c0 40.667 -3.33301 76.5 -10 107.5s-18.5 57.167 -35.5 78.5s-39.667 37.5 -68 48.5s-64.5 16.5 -108.5 16.5c-40 0 -78.667 -6.5 -116 -19.5s-70 -32.5 -98 -58.5l80 -82c16 18 34.167 32.167 54.5 42.5s42.833 15.5 67.5 15.5
c26 0 48.5 -7.83301 67.5 -23.5s28.5 -36.834 28.5 -63.501c-20.667 0 -43.167 -0.333008 -67.5 -1s-48.666 -2.66699 -72.999 -6s-47.833 -8.5 -70.5 -15.5s-42.834 -16.833 -60.501 -29.5s-31.667 -28.667 -42 -48s-15.5 -43 -15.5 -71
c0 -24.667 4.66699 -46.334 14 -65.001s22 -34.334 38 -47.001s34.5 -22.167 55.5 -28.5s42.833 -9.5 65.5 -9.5c30.667 0 59.834 5.66699 87.501 17s49.834 30 66.501 56h2v-61zM357.998 213.003l0.00195312 -32.002c0 -15.333 -3.16699 -28.666 -9.5 -39.999
s-14.833 -20.666 -25.5 -27.999s-22.834 -13 -36.501 -17s-27.834 -6 -42.501 -6c-16.667 0 -32.667 4.33301 -48 13s-23 22 -23 40c0 16.667 5.5 29.667 16.5 39s24.333 16.333 40 21s32 7.5 49 8.5s31.167 1.5 42.5 1.5h37zM269 545.001c15.333 0 29.666 3 42.999 9
s25 14 35 24s18 21.667 24 35s9 27.666 9 42.999s-3 29.666 -9 42.999s-14 25 -24 35s-21.667 18 -35 24s-27.666 9 -42.999 9s-29.666 -3 -42.999 -9s-25 -14 -35 -24s-18 -21.667 -24 -35s-9 -27.666 -9 -42.999s3 -29.666 9 -42.999s14 -25 24 -35s21.667 -18 35 -24
s27.666 -9 42.999 -9zM218 656.001c0 14 5 26 15 36s22 15 36 15s26 -5 36 -15s15 -22 15 -36s-5 -26 -15 -36s-22 -15 -36 -15s-26 5 -36 15s-15 22 -15 36z" />
    <glyph glyph-name="ae" unicode="&#xe6;" horiz-adv-x="852" 
d="M140 338c16 18 34.1709 32.168 54.5039 42.501s42.833 15.5 67.5 15.5c27.333 0 48.666 -9 63.999 -27s23 -41.667 23 -71h-18c-18 0 -38 -0.333008 -60 -1s-44.167 -2.66699 -66.5 -6s-44 -8.16602 -65 -14.499s-39.667 -15.5 -56 -27.5s-29.5 -27 -39.5 -45
s-15 -40 -15 -66c0 -24.667 4.66699 -46.334 14 -65.001s22 -34.334 38 -47.001s34.5 -22.167 55.5 -28.5s42.833 -9.5 65.5 -9.5c42.667 0 81.167 5.83301 115.5 17.5s62.166 32.167 83.499 61.5c21.333 -30 49 -50.667 83 -62s71 -17 111 -17
c39.333 0 77.333 8.33301 114 25s67 40.334 91 71.001l-105 77c-12.667 -17.333 -27.5 -31.5 -44.5 -42.5s-37.833 -16.5 -62.5 -16.5c-29.333 0 -54 8.5 -74 25.5s-33 39.833 -39 68.5h348v47c0 38.667 -5.33301 73.667 -16 105s-25.834 58.166 -45.501 80.499
s-43.667 39.5 -72 51.5s-59.833 18 -94.5 18c-32 0 -62.167 -5 -90.5 -15s-52.5 -24.667 -72.5 -44c-21.333 20.667 -45.833 35.667 -73.5 45s-55.834 14 -84.501 14c-40 0 -78.667 -6.5 -116 -19.5s-70 -32.5 -98 -58.5zM173.004 139.001
c0 14 5.99902 25.002 17.999 33.002s26.5 13.667 43.5 17s34.5 5.33301 52.5 6s32.667 1 44 1h18c0 -32 -7.5 -57.667 -22.5 -77s-40.5 -29 -76.5 -29c-8 0 -16.667 0.5 -26 1.5s-17.666 3.16699 -24.999 6.5s-13.5 8.16602 -18.5 14.499s-7.5 15.166 -7.5 26.499z
M475.003 298.003c0.666992 12 3.50098 23.501 8.50098 34.501s12 20.667 21 29s19.833 15.166 32.5 20.499s27.334 8 44.001 8c27.333 0 49.666 -9 66.999 -27s25.666 -39.667 24.999 -65h-198z" />
    <glyph glyph-name="ccedilla" unicode="&#xe7;" horiz-adv-x="482" 
d="M481 433c-23.333 24 -50.8301 40.8311 -82.4971 50.498s-61.834 14.5 -90.501 14.5c-37.333 0 -72.5 -6 -105.5 -18s-61.667 -29.167 -86 -51.5s-43.5 -49.166 -57.5 -80.499s-21 -66.333 -21 -105c0 -32.667 5 -62.667 15 -90s23.833 -51.5 41.5 -72.5
s38.667 -38.667 63 -53s51.166 -24.5 80.499 -30.5l-60 -90l32 -29c12.667 5.33301 24.667 8 36 8c10 0 20.833 -2.66699 32.5 -8s17.5 -14 17.5 -26c0 -6.66699 -2 -12 -6 -16s-9.16699 -7.16699 -15.5 -9.5s-13.333 -4 -21 -5s-15.5 -1.5 -23.5 -1.5
c-17.333 0 -32.5 2 -45.5 6s-23.5 7.66699 -31.5 11l-25 -47c17.333 -8.66699 37.5 -15.834 60.5 -21.501s44.5 -8.5 64.5 -8.5c12.667 0 27 1.66699 43 5s31.167 8.66602 45.5 15.999s26.333 17.333 36 30s14.5 28 14.5 46c0 18.667 -3.83301 33.5 -11.5 44.5
s-17.5 19.333 -29.5 25s-25.5 9.33398 -40.5 11.001s-29.833 2.5 -44.5 2.5l33 49c1.33301 -0.666992 4.33301 -1 9 -1c28.667 0 58.834 4.83301 90.501 14.5s59.167 26.5 82.5 50.5l-99 104c-8.66699 -10 -19 -18.667 -31 -26s-26.333 -11 -43 -11
c-38 0 -67.5 11.333 -88.5 34s-31.5 52.334 -31.5 89.001s10.5 66.334 31.5 89.001s50.5 34 88.5 34c15.333 0 29.666 -3.5 42.999 -10.5s23.666 -15.833 30.999 -26.5z" />
    <glyph glyph-name="egrave" unicode="&#xe8;" horiz-adv-x="574" 
d="M408 161c-12.667 -17.333 -27.499 -31.502 -44.499 -42.502s-37.833 -16.5 -62.5 -16.5c-29.333 0 -54 8.5 -74 25.5s-33 39.833 -39 68.5h348v47c0 38.667 -5.33301 73.667 -16 105s-25.834 58.166 -45.501 80.499s-43.667 39.5 -72 51.5s-59.833 18 -94.5 18
c-37.333 0 -72.5 -6 -105.5 -18s-61.667 -29.167 -86 -51.5s-43.5 -49.166 -57.5 -80.499s-21 -66.333 -21 -105s7 -73.667 21 -105s33.167 -58.166 57.5 -80.499s53 -39.5 86 -51.5s68.167 -18 105.5 -18c39.333 0 77.333 8.33301 114 25s67 40.334 91 71.001z
M188.001 297.998c0.666992 12 3.50098 23.501 8.50098 34.501s12 20.667 21 29s19.833 15.166 32.5 20.499s27.334 8 44.001 8c27.333 0 49.666 -9 66.999 -27s25.666 -39.667 24.999 -65h-198zM288.002 707.999h-204l173 -144h132z" />
    <glyph glyph-name="eacute" unicode="&#xe9;" horiz-adv-x="574" 
d="M408 161c-12.667 -17.333 -27.499 -31.502 -44.499 -42.502s-37.833 -16.5 -62.5 -16.5c-29.333 0 -54 8.5 -74 25.5s-33 39.833 -39 68.5h348v47c0 38.667 -5.33301 73.667 -16 105s-25.834 58.166 -45.501 80.499s-43.667 39.5 -72 51.5s-59.833 18 -94.5 18
c-37.333 0 -72.5 -6 -105.5 -18s-61.667 -29.167 -86 -51.5s-43.5 -49.166 -57.5 -80.499s-21 -66.333 -21 -105s7 -73.667 21 -105s33.167 -58.166 57.5 -80.499s53 -39.5 86 -51.5s68.167 -18 105.5 -18c39.333 0 77.333 8.33301 114 25s67 40.334 91 71.001z
M188.001 297.998c0.666992 12 3.50098 23.501 8.50098 34.501s12 20.667 21 29s19.833 15.166 32.5 20.499s27.334 8 44.001 8c27.333 0 49.666 -9 66.999 -27s25.666 -39.667 24.999 -65h-198zM187.002 563.999h132l173 144h-204z" />
    <glyph glyph-name="ecircumflex" unicode="&#xea;" horiz-adv-x="574" 
d="M408 161c-12.667 -17.333 -27.499 -31.502 -44.499 -42.502s-37.833 -16.5 -62.5 -16.5c-29.333 0 -54 8.5 -74 25.5s-33 39.833 -39 68.5h348v47c0 38.667 -5.33301 73.667 -16 105s-25.834 58.166 -45.501 80.499s-43.667 39.5 -72 51.5s-59.833 18 -94.5 18
c-37.333 0 -72.5 -6 -105.5 -18s-61.667 -29.167 -86 -51.5s-43.5 -49.166 -57.5 -80.499s-21 -66.333 -21 -105s7 -73.667 21 -105s33.167 -58.166 57.5 -80.499s53 -39.5 86 -51.5s68.167 -18 105.5 -18c39.333 0 77.333 8.33301 114 25s67 40.334 91 71.001z
M188.001 297.998c0.666992 12 3.50098 23.501 8.50098 34.501s12 20.667 21 29s19.833 15.166 32.5 20.499s27.334 8 44.001 8c27.333 0 49.666 -9 66.999 -27s25.666 -39.667 24.999 -65h-198zM486.002 563.999l-116 144h-163l-119 -144h135l62 78l63 -78h138z" />
    <glyph glyph-name="edieresis" unicode="&#xeb;" horiz-adv-x="574" 
d="M408 161c-12.667 -17.333 -27.499 -31.502 -44.499 -42.502s-37.833 -16.5 -62.5 -16.5c-29.333 0 -54 8.5 -74 25.5s-33 39.833 -39 68.5h348v47c0 38.667 -5.33301 73.667 -16 105s-25.834 58.166 -45.501 80.499s-43.667 39.5 -72 51.5s-59.833 18 -94.5 18
c-37.333 0 -72.5 -6 -105.5 -18s-61.667 -29.167 -86 -51.5s-43.5 -49.166 -57.5 -80.499s-21 -66.333 -21 -105s7 -73.667 21 -105s33.167 -58.166 57.5 -80.499s53 -39.5 86 -51.5s68.167 -18 105.5 -18c39.333 0 77.333 8.33301 114 25s67 40.334 91 71.001z
M188.001 297.998c0.666992 12 3.50098 23.501 8.50098 34.501s12 20.667 21 29s19.833 15.166 32.5 20.499s27.334 8 44.001 8c27.333 0 49.666 -9 66.999 -27s25.666 -39.667 24.999 -65h-198zM182.002 557.999c24.667 0 44.999 8.33203 60.999 24.999s24 37 24 61
s-8.66699 43.667 -26 59s-37.666 23 -60.999 23c-11.333 0 -21.833 -2.33301 -31.5 -7s-18.167 -10.667 -25.5 -18s-13.166 -16 -17.499 -26s-6.5 -20.333 -6.5 -31c0 -11.333 2.16699 -22.166 6.5 -32.499s10.166 -19.5 17.499 -27.5s16 -14.333 26 -19s21 -7 33 -7z
M390.001 557.998c24.667 0 44.999 8.33203 60.999 24.999s24 37 24 61s-8.66699 43.667 -26 59s-37.666 23 -60.999 23c-11.333 0 -21.833 -2.33301 -31.5 -7s-18.167 -10.667 -25.5 -18s-13.166 -16 -17.499 -26s-6.5 -20.333 -6.5 -31
c0 -11.333 2.16699 -22.166 6.5 -32.499s10.166 -19.5 17.499 -27.5s16 -14.333 26 -19s21 -7 33 -7z" />
    <glyph glyph-name="igrave" unicode="&#xec;" 
d="M55 0h150v486h-150v-486zM131 708h-204l173 -144h132z" />
    <glyph glyph-name="iacute" unicode="&#xed;" 
d="M55 0h150v486h-150v-486zM30 564h132l173 144h-204z" />
    <glyph glyph-name="icircumflex" unicode="&#xee;" 
d="M55 0h150v486h-150v-486zM329 564l-116 144h-163l-119 -144h135l62 78l63 -78h138z" />
    <glyph glyph-name="idieresis" unicode="&#xef;" 
d="M55 0h150v486h-150v-486zM25 558c24.667 0 44.999 8.33203 60.999 24.999s24 37 24 61s-8.66699 43.667 -26 59s-37.666 23 -60.999 23c-11.333 0 -21.833 -2.33301 -31.5 -7s-18.167 -10.667 -25.5 -18s-13.166 -16 -17.499 -26s-6.5 -20.333 -6.5 -31
c0 -11.333 2.16699 -22.166 6.5 -32.499s10.166 -19.5 17.499 -27.5s16 -14.333 26 -19s21 -7 33 -7zM232.999 557.999c24.667 0 44.999 8.33203 60.999 24.999s24 37 24 61s-8.66699 43.667 -26 59s-37.666 23 -60.999 23c-11.333 0 -21.833 -2.33301 -31.5 -7
s-18.167 -10.667 -25.5 -18s-13.166 -16 -17.499 -26s-6.5 -20.333 -6.5 -31c0 -11.333 2.16699 -22.166 6.5 -32.499s10.166 -19.5 17.499 -27.5s16 -14.333 26 -19s21 -7 33 -7z" />
    <glyph glyph-name="eth" unicode="&#xf0;" horiz-adv-x="610" 
d="M449 777l-114.001 -48.0029c-12 12.667 -24.5 25 -37.5 37s-27.167 23.667 -42.5 35l-122 -70c6 -4 12.333 -8.66699 19 -14s13.167 -10.833 19.5 -16.5l17.5 -16l13 -12.5l-108 -46l72 -68l106 45c8 -7.33301 17.167 -16.5 27.5 -27.5s20.5 -22.5 30.5 -34.5l29 -35.5
c9.33301 -11.667 17.333 -22.167 24 -31.5l-2 -2c-13.333 11.333 -28.666 18.5 -45.999 21.5s-34.666 4.5 -51.999 4.5c-30.667 0 -60.834 -6 -90.501 -18s-56.167 -29.167 -79.5 -51.5s-42.166 -49.166 -56.499 -80.499s-21.5 -66.333 -21.5 -105s7 -73.667 21 -105
s33.167 -58.166 57.5 -80.499s53 -39.5 86 -51.5s68.167 -18 105.5 -18c44 -0.666992 82.667 6 116 20s61.5 33.833 84.5 59.5s40.333 56.834 52 93.501s17.5 77.667 17.5 123c0 47.333 -6 90.333 -18 129s-26.833 73.5 -44.5 104.5s-36.334 58.167 -56.001 81.5
s-37.5 43.333 -53.5 60l123 51zM184.999 242.997c0 36.667 10.5 66.334 31.5 89.001s50.5 34 88.5 34s67.5 -11.333 88.5 -34s31.5 -52.334 31.5 -89.001s-10.5 -66.334 -31.5 -89.001s-50.5 -34 -88.5 -34s-67.5 11.333 -88.5 34s-31.5 52.334 -31.5 89.001z" />
    <glyph glyph-name="ntilde" unicode="&#xf1;" horiz-adv-x="574" 
d="M53 0l150.002 -0.00390625v242c0 16 1 31.333 3 46s6.16699 27.834 12.5 39.501s15.5 21 27.5 28s27.667 10.5 47 10.5s34.166 -4 44.499 -12s18 -18.333 23 -31s8 -26.5 9 -41.5s1.5 -29.5 1.5 -43.5v-238h150v268c0 32.667 -2.33301 63 -7 91s-13.5 52.333 -26.5 73
s-31.167 36.834 -54.5 48.501s-54 17.5 -92 17.5c-18 0 -34.667 -2.33301 -50 -7s-29 -10.667 -41 -18s-22.333 -15.666 -31 -24.999s-15.334 -18.666 -20.001 -27.999h-2v66h-144v-486zM170.002 569.996c3.33301 9.33301 8.33691 18.667 15.0039 28s15.667 14 27 14
c10 0 20.167 -2.16699 30.5 -6.5s21.166 -9.16602 32.499 -14.499s23.5 -10.166 36.5 -14.499s26.833 -6.5 41.5 -6.5c20.667 0 38.5 3.66699 53.5 11s27.667 17.166 38 29.499s18.5 26.833 24.5 43.5s10.667 34.667 14 54h-78c-4.66699 -10 -10.334 -18.5 -17.001 -25.5
s-15.667 -10.5 -27 -10.5c-10 0 -19.5 1.66699 -28.5 5l-27.5 10c-14.667 6 -28.667 11 -42 15s-28.333 6 -45 6c-18.667 0 -35.334 -4 -50.001 -12s-27.167 -18.5 -37.5 -31.5s-18.833 -27.833 -25.5 -44.5s-11.334 -33.334 -14.001 -50.001h79z" />
    <glyph glyph-name="ograve" unicode="&#xf2;" horiz-adv-x="610" 
d="M35 243c0 -38.667 7 -73.667 21 -105s33.167 -58.166 57.5 -80.499s53 -39.5 86 -51.5s68.167 -18 105.5 -18s72.5 6 105.5 18s61.667 29.167 86 51.5s43.5 49.166 57.5 80.499s21 66.333 21 105s-7 73.667 -21 105s-33.167 58.166 -57.5 80.499s-53 39.5 -86 51.5
s-68.167 18 -105.5 18s-72.5 -6 -105.5 -18s-61.667 -29.167 -86 -51.5s-43.5 -49.166 -57.5 -80.499s-21 -66.333 -21 -105zM185 243c0 36.667 10.5 66.334 31.5 89.001s50.5 34 88.5 34s67.5 -11.333 88.5 -34s31.5 -52.334 31.5 -89.001s-10.5 -66.334 -31.5 -89.001
s-50.5 -34 -88.5 -34s-67.5 11.333 -88.5 34s-31.5 52.334 -31.5 89.001zM306 708h-204l173 -144h132z" />
    <glyph glyph-name="oacute" unicode="&#xf3;" horiz-adv-x="610" 
d="M35 243c0 -38.667 7 -73.667 21 -105s33.167 -58.166 57.5 -80.499s53 -39.5 86 -51.5s68.167 -18 105.5 -18s72.5 6 105.5 18s61.667 29.167 86 51.5s43.5 49.166 57.5 80.499s21 66.333 21 105s-7 73.667 -21 105s-33.167 58.166 -57.5 80.499s-53 39.5 -86 51.5
s-68.167 18 -105.5 18s-72.5 -6 -105.5 -18s-61.667 -29.167 -86 -51.5s-43.5 -49.166 -57.5 -80.499s-21 -66.333 -21 -105zM185 243c0 36.667 10.5 66.334 31.5 89.001s50.5 34 88.5 34s67.5 -11.333 88.5 -34s31.5 -52.334 31.5 -89.001s-10.5 -66.334 -31.5 -89.001
s-50.5 -34 -88.5 -34s-67.5 11.333 -88.5 34s-31.5 52.334 -31.5 89.001zM205 564h132l173 144h-204z" />
    <glyph glyph-name="ocircumflex" unicode="&#xf4;" horiz-adv-x="610" 
d="M35 243c0 -38.667 7 -73.667 21 -105s33.167 -58.166 57.5 -80.499s53 -39.5 86 -51.5s68.167 -18 105.5 -18s72.5 6 105.5 18s61.667 29.167 86 51.5s43.5 49.166 57.5 80.499s21 66.333 21 105s-7 73.667 -21 105s-33.167 58.166 -57.5 80.499s-53 39.5 -86 51.5
s-68.167 18 -105.5 18s-72.5 -6 -105.5 -18s-61.667 -29.167 -86 -51.5s-43.5 -49.166 -57.5 -80.499s-21 -66.333 -21 -105zM185 243c0 36.667 10.5 66.334 31.5 89.001s50.5 34 88.5 34s67.5 -11.333 88.5 -34s31.5 -52.334 31.5 -89.001s-10.5 -66.334 -31.5 -89.001
s-50.5 -34 -88.5 -34s-67.5 11.333 -88.5 34s-31.5 52.334 -31.5 89.001zM504 564l-116 144h-163l-119 -144h135l62 78l63 -78h138z" />
    <glyph glyph-name="otilde" unicode="&#xf5;" horiz-adv-x="610" 
d="M35 243c0 -38.667 7 -73.667 21 -105s33.167 -58.166 57.5 -80.499s53 -39.5 86 -51.5s68.167 -18 105.5 -18s72.5 6 105.5 18s61.667 29.167 86 51.5s43.5 49.166 57.5 80.499s21 66.333 21 105s-7 73.667 -21 105s-33.167 58.166 -57.5 80.499s-53 39.5 -86 51.5
s-68.167 18 -105.5 18s-72.5 -6 -105.5 -18s-61.667 -29.167 -86 -51.5s-43.5 -49.166 -57.5 -80.499s-21 -66.333 -21 -105zM185 243c0 36.667 10.5 66.334 31.5 89.001s50.5 34 88.5 34s67.5 -11.333 88.5 -34s31.5 -52.334 31.5 -89.001s-10.5 -66.334 -31.5 -89.001
s-50.5 -34 -88.5 -34s-67.5 11.333 -88.5 34s-31.5 52.334 -31.5 89.001zM188 570c3.33301 9.33301 8.33691 18.667 15.0039 28s15.667 14 27 14c10 0 20.167 -2.16699 30.5 -6.5s21.166 -9.16602 32.499 -14.499s23.5 -10.166 36.5 -14.499s26.833 -6.5 41.5 -6.5
c20.667 0 38.5 3.66699 53.5 11s27.667 17.166 38 29.499s18.5 26.833 24.5 43.5s10.667 34.667 14 54h-78c-4.66699 -10 -10.334 -18.5 -17.001 -25.5s-15.667 -10.5 -27 -10.5c-10 0 -19.5 1.66699 -28.5 5l-27.5 10c-14.667 6 -28.667 11 -42 15s-28.333 6 -45 6
c-18.667 0 -35.334 -4 -50.001 -12s-27.167 -18.5 -37.5 -31.5s-18.833 -27.833 -25.5 -44.5s-11.334 -33.334 -14.001 -50.001h79z" />
    <glyph glyph-name="odieresis" unicode="&#xf6;" horiz-adv-x="610" 
d="M35 243c0 -38.667 7 -73.667 21 -105s33.167 -58.166 57.5 -80.499s53 -39.5 86 -51.5s68.167 -18 105.5 -18s72.5 6 105.5 18s61.667 29.167 86 51.5s43.5 49.166 57.5 80.499s21 66.333 21 105s-7 73.667 -21 105s-33.167 58.166 -57.5 80.499s-53 39.5 -86 51.5
s-68.167 18 -105.5 18s-72.5 -6 -105.5 -18s-61.667 -29.167 -86 -51.5s-43.5 -49.166 -57.5 -80.499s-21 -66.333 -21 -105zM185 243c0 36.667 10.5 66.334 31.5 89.001s50.5 34 88.5 34s67.5 -11.333 88.5 -34s31.5 -52.334 31.5 -89.001s-10.5 -66.334 -31.5 -89.001
s-50.5 -34 -88.5 -34s-67.5 11.333 -88.5 34s-31.5 52.334 -31.5 89.001zM200 558c24.667 0 44.999 8.33203 60.999 24.999s24 37 24 61s-8.66699 43.667 -26 59s-37.666 23 -60.999 23c-11.333 0 -21.833 -2.33301 -31.5 -7s-18.167 -10.667 -25.5 -18
s-13.166 -16 -17.499 -26s-6.5 -20.333 -6.5 -31c0 -11.333 2.16699 -22.166 6.5 -32.499s10.166 -19.5 17.499 -27.5s16 -14.333 26 -19s21 -7 33 -7zM407.999 557.999c24.667 0 44.999 8.33203 60.999 24.999s24 37 24 61s-8.66699 43.667 -26 59s-37.666 23 -60.999 23
c-11.333 0 -21.833 -2.33301 -31.5 -7s-18.167 -10.667 -25.5 -18s-13.166 -16 -17.499 -26s-6.5 -20.333 -6.5 -31c0 -11.333 2.16699 -22.166 6.5 -32.499s10.166 -19.5 17.499 -27.5s16 -14.333 26 -19s21 -7 33 -7z" />
    <glyph glyph-name="divide" unicode="&#xf7;" horiz-adv-x="666" 
d="M59 240h548v126h-548v-126zM247 114c0 -12 2.33301 -23.167 7 -33.5s10.834 -19.333 18.501 -27s16.667 -13.834 27 -18.501s21.5 -7 33.5 -7s23.167 2.33301 33.5 7s19.333 10.834 27 18.501s13.834 16.667 18.501 27s7 21.5 7 33.5s-2.33301 23.167 -7 33.5
s-10.834 19.333 -18.501 27s-16.667 13.834 -27 18.501s-21.5 7 -33.5 7s-23.167 -2.33301 -33.5 -7s-19.333 -10.834 -27 -18.501s-13.834 -16.667 -18.501 -27s-7 -21.5 -7 -33.5zM247 492c0 -12 2.33301 -23.167 7 -33.5s10.834 -19.333 18.501 -27
s16.667 -13.834 27 -18.501s21.5 -7 33.5 -7s23.167 2.33301 33.5 7s19.333 10.834 27 18.501s13.834 16.667 18.501 27s7 21.5 7 33.5s-2.33301 23.167 -7 33.5s-10.834 19.333 -18.501 27s-16.667 13.834 -27 18.501s-21.5 7 -33.5 7s-23.167 -2.33301 -33.5 -7
s-19.333 -10.834 -27 -18.501s-13.834 -16.667 -18.501 -27s-7 -21.5 -7 -33.5z" />
    <glyph glyph-name="oslash" unicode="&#xf8;" horiz-adv-x="610" 
d="M26 6l47.001 -44.999l73 73c46 -30.667 99 -46 159 -46c37.333 0 72.5 6 105.5 18s61.667 29.167 86 51.5s43.5 49.166 57.5 80.499s21 66.333 21 105c0 32 -5 61.667 -15 89s-24 51.666 -42 72.999l66 66l-47 45l-67 -67c-22.667 15.333 -47.834 27.333 -75.501 36
s-57.5 13 -89.5 13c-37.333 0 -72.5 -6 -105.5 -18s-61.667 -29.167 -86 -51.5s-43.5 -49.166 -57.5 -80.499s-21 -66.333 -21 -105c0 -34 5.33301 -65 16 -93s25.667 -52.667 45 -74zM200.001 180.001c-10 18 -15 38.999 -15 62.999c0 36.667 10.5 66.334 31.5 89.001
s50.5 34 88.5 34c25.333 0 47 -5.33301 65 -16zM413.001 300c8 -17.333 12 -36.332 12 -56.999c0 -36.667 -10.5 -66.334 -31.5 -89.001s-50.5 -34 -88.5 -34c-22 0 -41.667 4.66699 -59 14z" />
    <glyph glyph-name="ugrave" unicode="&#xf9;" horiz-adv-x="574" 
d="M521 486l-150 0.00390625v-242c0 -16 -1 -31.333 -3 -46s-6.16699 -27.834 -12.5 -39.501s-15.5 -21 -27.5 -28s-27.667 -10.5 -47 -10.5s-34.166 4 -44.499 12s-18 18.333 -23 31s-8 26.5 -9 41.5s-1.5 29.5 -1.5 43.5v238h-150v-268c0 -32.667 2.16699 -63 6.5 -91
s13 -52.333 26 -73s31.333 -36.834 55 -48.501s54.5 -17.5 92.5 -17.5c18 0 34.667 2.33301 50 7s29 10.667 41 18s22.167 15.666 30.5 24.999s15.166 18.666 20.499 27.999h2v-66h144v486zM288 708.004h-204l173 -144h132z" />
    <glyph glyph-name="uacute" unicode="&#xfa;" horiz-adv-x="574" 
d="M521 486l-150 0.00390625v-242c0 -16 -1 -31.333 -3 -46s-6.16699 -27.834 -12.5 -39.501s-15.5 -21 -27.5 -28s-27.667 -10.5 -47 -10.5s-34.166 4 -44.499 12s-18 18.333 -23 31s-8 26.5 -9 41.5s-1.5 29.5 -1.5 43.5v238h-150v-268c0 -32.667 2.16699 -63 6.5 -91
s13 -52.333 26 -73s31.333 -36.834 55 -48.501s54.5 -17.5 92.5 -17.5c18 0 34.667 2.33301 50 7s29 10.667 41 18s22.167 15.666 30.5 24.999s15.166 18.666 20.499 27.999h2v-66h144v486zM187 564.004h132l173 144h-204z" />
    <glyph glyph-name="ucircumflex" unicode="&#xfb;" horiz-adv-x="574" 
d="M521 486l-150 0.00390625v-242c0 -16 -1 -31.333 -3 -46s-6.16699 -27.834 -12.5 -39.501s-15.5 -21 -27.5 -28s-27.667 -10.5 -47 -10.5s-34.166 4 -44.499 12s-18 18.333 -23 31s-8 26.5 -9 41.5s-1.5 29.5 -1.5 43.5v238h-150v-268c0 -32.667 2.16699 -63 6.5 -91
s13 -52.333 26 -73s31.333 -36.834 55 -48.501s54.5 -17.5 92.5 -17.5c18 0 34.667 2.33301 50 7s29 10.667 41 18s22.167 15.666 30.5 24.999s15.166 18.666 20.499 27.999h2v-66h144v486zM486 564.004l-116 144h-163l-119 -144h135l62 78l63 -78h138z" />
    <glyph glyph-name="udieresis" unicode="&#xfc;" horiz-adv-x="574" 
d="M521 486l-150 0.00390625v-242c0 -16 -1 -31.333 -3 -46s-6.16699 -27.834 -12.5 -39.501s-15.5 -21 -27.5 -28s-27.667 -10.5 -47 -10.5s-34.166 4 -44.499 12s-18 18.333 -23 31s-8 26.5 -9 41.5s-1.5 29.5 -1.5 43.5v238h-150v-268c0 -32.667 2.16699 -63 6.5 -91
s13 -52.333 26 -73s31.333 -36.834 55 -48.501s54.5 -17.5 92.5 -17.5c18 0 34.667 2.33301 50 7s29 10.667 41 18s22.167 15.666 30.5 24.999s15.166 18.666 20.499 27.999h2v-66h144v486zM182 558.004c24.667 0 44.999 8.33203 60.999 24.999s24 37 24 61
s-8.66699 43.667 -26 59s-37.666 23 -60.999 23c-11.333 0 -21.833 -2.33301 -31.5 -7s-18.167 -10.667 -25.5 -18s-13.166 -16 -17.499 -26s-6.5 -20.333 -6.5 -31c0 -11.333 2.16699 -22.166 6.5 -32.499s10.166 -19.5 17.499 -27.5s16 -14.333 26 -19s21 -7 33 -7z
M389.999 558.003c24.667 0 44.999 8.33203 60.999 24.999s24 37 24 61s-8.66699 43.667 -26 59s-37.666 23 -60.999 23c-11.333 0 -21.833 -2.33301 -31.5 -7s-18.167 -10.667 -25.5 -18s-13.166 -16 -17.499 -26s-6.5 -20.333 -6.5 -31
c0 -11.333 2.16699 -22.166 6.5 -32.499s10.166 -19.5 17.499 -27.5s16 -14.333 26 -19s21 -7 33 -7z" />
    <glyph glyph-name="yacute" unicode="&#xfd;" horiz-adv-x="556" 
d="M553 486h-153.998l-107 -321h-2l-125 321h-162l213 -490l-11 -28c-5.33301 -13.333 -10.333 -25 -15 -35s-10.5 -18.5 -17.5 -25.5s-15.833 -12.333 -26.5 -16s-24.334 -5.5 -41.001 -5.5c-24 0 -47.333 5 -70 15l-20 -123c36 -12 73.333 -18 112 -18
c36 0 65 3.5 87 10.5s40.167 17.333 54.5 31s26.166 30.5 35.499 50.5s19 43 29 69zM178.002 564h132l173 144h-204z" />
    <glyph glyph-name="thorn" unicode="&#xfe;" horiz-adv-x="630" 
d="M67 -228l150 0.000976562v280h2c17.333 -23.333 39.5 -39.833 66.5 -49.5s56.167 -14.5 87.5 -14.5c34.667 0 65.667 7.16699 93 21.5s50.5 33.5 69.5 57.5s33.667 51.5 44 82.5s15.5 63.5 15.5 97.5c0 36.667 -5.66699 70.334 -17 101.001s-27.5 57.167 -48.5 79.5
s-46.167 39.666 -75.5 51.999s-62 18.5 -98 18.5c-14 0 -27.833 -1.5 -41.5 -4.5s-26.667 -7.33301 -39 -13s-23.333 -12.334 -33 -20.001s-17.5 -16.5 -23.5 -26.5h-2v322h-150v-984zM205 243.001c0 36.667 10.5 66.334 31.5 89.001s50.5 34 88.5 34s67.5 -11.333 88.5 -34
s31.5 -52.334 31.5 -89.001s-10.5 -66.334 -31.5 -89.001s-50.5 -34 -88.5 -34s-67.5 11.333 -88.5 34s-31.5 52.334 -31.5 89.001z" />
    <glyph glyph-name="ydieresis" unicode="&#xff;" horiz-adv-x="556" 
d="M553 486h-153.998l-107 -321h-2l-125 321h-162l213 -490l-11 -28c-5.33301 -13.333 -10.333 -25 -15 -35s-10.5 -18.5 -17.5 -25.5s-15.833 -12.333 -26.5 -16s-24.334 -5.5 -41.001 -5.5c-24 0 -47.333 5 -70 15l-20 -123c36 -12 73.333 -18 112 -18
c36 0 65 3.5 87 10.5s40.167 17.333 54.5 31s26.166 30.5 35.499 50.5s19 43 29 69zM173.002 558c24.667 0 44.999 8.33203 60.999 24.999s24 37 24 61s-8.66699 43.667 -26 59s-37.666 23 -60.999 23c-11.333 0 -21.833 -2.33301 -31.5 -7s-18.167 -10.667 -25.5 -18
s-13.166 -16 -17.499 -26s-6.5 -20.333 -6.5 -31c0 -11.333 2.16699 -22.166 6.5 -32.499s10.166 -19.5 17.499 -27.5s16 -14.333 26 -19s21 -7 33 -7zM381.001 557.999c24.667 0 44.999 8.33203 60.999 24.999s24 37 24 61s-8.66699 43.667 -26 59s-37.666 23 -60.999 23
c-11.333 0 -21.833 -2.33301 -31.5 -7s-18.167 -10.667 -25.5 -18s-13.166 -16 -17.499 -26s-6.5 -20.333 -6.5 -31c0 -11.333 2.16699 -22.166 6.5 -32.499s10.166 -19.5 17.499 -27.5s16 -14.333 26 -19s21 -7 33 -7z" />
    <glyph glyph-name="dotlessi" unicode="&#x131;" 
d="M55 0h150v486h-150v-486z" />
    <glyph glyph-name="Lslash" unicode="&#x141;" horiz-adv-x="537" 
d="M78 0h445v144h-289v154l210 184v130l-210 -185v281h-156v-416l-60 -52v-132l60 52v-160z" />
    <glyph glyph-name="lslash" unicode="&#x142;" 
d="M55 0h150v398l60 61v129l-60 -61v229h-150v-379l-60 -61v-129l60 61v-248z" />
    <glyph glyph-name="OE" unicode="&#x152;" horiz-adv-x="1018" 
d="M665 564l288 0.00195312v144h-527c-54.667 0 -105.834 -7.66699 -153.501 -23s-89.167 -38 -124.5 -68s-63.166 -67 -83.499 -111s-30.5 -94.667 -30.5 -152c0 -62 12 -115.333 36 -160s55 -81.334 93 -110.001s80.833 -49.834 128.5 -63.501s95.167 -20.5 142.5 -20.5
h531v144h-300v144h264v144h-264v132zM509 144.002l-51 -0.00195312c-38.667 0 -74 4.33301 -106 13s-59.5 21.834 -82.5 39.501s-41 39.5 -54 65.5s-19.5 56.667 -19.5 92c0 34.667 6.5 65.167 19.5 91.5s31 48.333 54 66s50.5 30.834 82.5 39.501s67.333 13 106 13h51v-420
z" />
    <glyph glyph-name="oe" unicode="&#x153;" horiz-adv-x="944" 
d="M778 161c-12.667 -17.333 -27.499 -31.5029 -44.499 -42.5029s-37.833 -16.5 -62.5 -16.5c-29.333 0 -54 8.5 -74 25.5s-33 39.833 -39 68.5h348v47c0 38.667 -5.33301 73.667 -16 105s-25.834 58.166 -45.501 80.499s-43.667 39.5 -72 51.5s-59.833 18 -94.5 18
c-44 0 -81.333 -6.5 -112 -19.5s-56.667 -30.833 -78 -53.5c-24 24.667 -51.333 43 -82 55s-64 18 -100 18c-38 0 -73.333 -6 -106 -18s-61.334 -29.167 -86.001 -51.5s-44 -49.166 -58 -80.499s-21 -66.333 -21 -105s7 -73.667 21 -105s33.333 -58.166 58 -80.499
s53.334 -39.5 86.001 -51.5s68 -18 106 -18c34 0 66.5 5 97.5 15s59.167 28 84.5 54c23.333 -25.333 50.333 -43.166 81 -53.499s67 -15.5 109 -15.5c39.333 0 77.333 8.33301 114 25s67 40.334 91 71.001zM306.001 365.997c38 0 67.5 -11.333 88.5 -34
s31.5 -52.334 31.5 -89.001s-10.5 -66.334 -31.5 -89.001s-50.5 -34 -88.5 -34s-67.667 11.333 -89 34s-32 52.334 -32 89.001s10.667 66.334 32 89.001s51 34 89 34zM558.001 297.997c0.666992 12 3.50098 23.501 8.50098 34.501s12 20.667 21 29
s19.833 15.166 32.5 20.499s27.334 8 44.001 8c27.333 0 49.666 -9 66.999 -27s25.666 -39.667 24.999 -65h-198z" />
    <glyph glyph-name="Scaron" unicode="&#x160;" horiz-adv-x="574" 
d="M529 652c-30 26.667 -63.6709 45.6709 -101.004 57.0039s-76 17 -116 17c-34.667 0 -68.334 -4.83301 -101.001 -14.5s-61.5 -24.167 -86.5 -43.5s-45 -43.333 -60 -72s-22.5 -62 -22.5 -100c0 -39.333 8.16699 -71 24.5 -95s36.833 -43.333 61.5 -58
s51.334 -26.334 80.001 -35.001s55.334 -17.334 80.001 -26.001s45.167 -19.167 61.5 -31.5s24.5 -29.166 24.5 -50.499c0 -12.667 -3.16699 -23.667 -9.5 -33s-14.666 -17 -24.999 -23s-22 -10.5 -35 -13.5s-25.833 -4.5 -38.5 -4.5c-26 0 -51.167 5.83301 -75.5 17.5
s-44.5 28.167 -60.5 49.5l-111 -122c34 -31.333 70.667 -54 110 -68s82 -21 128 -21c36.667 0 71.5 4.66699 104.5 14s62 23.666 87 42.999s44.833 43.666 59.5 72.999s22 63.666 22 102.999c0 41.333 -8 74.333 -24 99s-36.167 44.334 -60.5 59.001s-50.5 26 -78.5 34
s-54.167 16 -78.5 24s-44.5 17.667 -60.5 29s-24 27.666 -24 48.999c0 13.333 3.33301 24.666 10 33.999s15.334 16.833 26.001 22.5s22 9.83398 34 12.501s23.667 4 35 4c19.333 0 39.833 -3.83301 61.5 -11.5s38.834 -19.5 51.501 -35.5zM83.9961 930.004l116 -144h163
l119 144h-135l-62 -78l-63 78h-138z" />
    <glyph glyph-name="scaron" unicode="&#x161;" horiz-adv-x="463" 
d="M420 434c-22.667 24 -50.333 40.6689 -83 50.002s-65 14 -97 14c-25.333 0 -50.333 -3.16699 -75 -9.5s-46.5 -16.166 -65.5 -29.499s-34.333 -30.333 -46 -51s-17.5 -45.334 -17.5 -74.001c0 -30.667 6.16699 -55.167 18.5 -73.5s28 -32.5 47 -42.5
s39.333 -17.5 61 -22.5l61 -14c19 -4.33301 34.667 -9.66602 47 -15.999s18.5 -15.833 18.5 -28.5c0 -13.333 -7 -22.5 -21 -27.5s-29.667 -7.5 -47 -7.5c-22.667 0 -42.5 4.5 -59.5 13.5s-32.5 22.167 -46.5 39.5l-91 -101c24 -24.667 53.333 -41.834 88 -51.501
s69 -14.5 103 -14.5c26 0 52.333 2.5 79 7.5s50.667 13.667 72 26s38.833 28.666 52.5 48.999s20.5 46.166 20.5 77.499c0 30.667 -6.16699 55.167 -18.5 73.5s-28 32.833 -47 43.5s-39.333 18.5 -61 23.5l-61 14c-19 4.33301 -34.667 9.33301 -47 15s-18.5 14.5 -18.5 26.5
c0 14.667 6 25 18 31s24.333 9 37 9c36 0 65 -13.667 87 -41zM29.001 708.002l116 -144h163l119 144h-135l-62 -78l-63 78h-138z" />
    <glyph glyph-name="Ydieresis" unicode="&#x178;" horiz-adv-x="648" 
d="M246 0h156v302l266 406h-185l-159 -265l-150 265h-194l266 -406v-302zM219 780c24.667 0 44.999 8.33203 60.999 24.999s24 37 24 61s-8.66699 43.667 -26 59s-37.666 23 -60.999 23c-11.333 0 -21.833 -2.33301 -31.5 -7s-18.167 -10.667 -25.5 -18
s-13.166 -16 -17.499 -26s-6.5 -20.333 -6.5 -31c0 -11.333 2.16699 -22.166 6.5 -32.499s10.166 -19.5 17.499 -27.5s16 -14.333 26 -19s21 -7 33 -7zM426.999 779.999c24.667 0 44.999 8.33203 60.999 24.999s24 37 24 61s-8.66699 43.667 -26 59s-37.666 23 -60.999 23
c-11.333 0 -21.833 -2.33301 -31.5 -7s-18.167 -10.667 -25.5 -18s-13.166 -16 -17.499 -26s-6.5 -20.333 -6.5 -31c0 -11.333 2.16699 -22.166 6.5 -32.499s10.166 -19.5 17.499 -27.5s16 -14.333 26 -19s21 -7 33 -7z" />
    <glyph glyph-name="Zcaron" unicode="&#x17d;" horiz-adv-x="630" 
d="M35 0h560v144h-364l352 426v138h-535v-138h346l-359 -426v-144zM112 930l116 -144h163l119 144h-135l-62 -78l-63 78h-138z" />
    <glyph glyph-name="zcaron" unicode="&#x17e;" horiz-adv-x="500" 
d="M34 0h432v120h-270l264 222v144h-420v-120h246l-252 -216v-150zM47 708l116 -144h163l119 144h-135l-62 -78l-63 78h-138z" />
    <glyph glyph-name="florin" unicode="&#x192;" horiz-adv-x="592" 
d="M496 434l-125.999 -0.00195312l15 71c6 29.333 14.667 50.5 26 63.5s29 19.5 53 19.5c18 0 35.333 -3.66699 52 -11l53 113c-21.333 10 -42.5 17.5 -63.5 22.5s-43.167 7.5 -66.5 7.5c-30.667 0 -56.834 -3.16699 -78.501 -9.5s-40.167 -17.166 -55.5 -32.499
s-28 -35.5 -38 -60.5s-18.667 -55.833 -26 -92.5l-18 -91h-134v-102h114l-50 -244c-7.33301 -34.667 -16.333 -59.167 -27 -73.5s-26.667 -21.5 -48 -21.5c-8 0 -15.833 0.833008 -23.5 2.5s-15.167 4.5 -22.5 8.5l-52 -119c17.333 -7.33301 35.5 -13.166 54.5 -17.499
s37.833 -6.5 56.5 -6.5c31.333 0 58.333 4.16699 81 12.5s42 20.333 58 36s29 34.5 39 56.5s17.667 46.667 23 74l58 292h146v102z" />
    <glyph glyph-name="circumflex" unicode="&#x2c6;" 
d="M329 564l-116 144h-163l-119 -144h135l62 78l63 -78h138z" />
    <glyph glyph-name="caron" unicode="&#x2c7;" 
d="M-73 708l116 -144h163l119 144h-135l-62 -78l-63 78h-138z" />
    <glyph glyph-name="breve" unicode="&#x2d8;" 
d="M-54 708c1.33301 -26 7.3291 -48.166 17.9961 -66.499s24.334 -33.333 41.001 -45s35.667 -20 57 -25s44 -7.5 68 -7.5s46.5 2.66699 67.5 8s39.667 13.833 56 25.5s29.833 26.667 40.5 45s17.334 40.166 20.001 65.499h-79c-7.33301 -22 -20.166 -35.5 -38.499 -40.5
s-40.5 -7.5 -66.5 -7.5c-11.333 0 -22.666 0.666992 -33.999 2s-21.833 3.83301 -31.5 7.5s-18 8.5 -25 14.5s-11.5 14 -13.5 24h-80z" />
    <glyph glyph-name="dotaccent" unicode="&#x2d9;" 
d="M129 558c24.667 0 44.999 8.33203 60.999 24.999s24 37 24 61s-8.66699 43.667 -26 59s-37.666 23 -60.999 23c-11.333 0 -21.833 -2.33301 -31.5 -7s-18.167 -10.667 -25.5 -18s-13.166 -16 -17.499 -26s-6.5 -20.333 -6.5 -31c0 -11.333 2.16699 -22.166 6.5 -32.499
s10.166 -19.5 17.499 -27.5s16 -14.333 26 -19s21 -7 33 -7z" />
    <glyph glyph-name="ring" unicode="&#x2da;" 
d="M130 545c15.333 0 29.666 3 42.999 9s25 14 35 24s18 21.667 24 35s9 27.666 9 42.999s-3 29.666 -9 42.999s-14 25 -24 35s-21.667 18 -35 24s-27.666 9 -42.999 9s-29.666 -3 -42.999 -9s-25 -14 -35 -24s-18 -21.667 -24 -35s-9 -27.666 -9 -42.999
s3 -29.666 9 -42.999s14 -25 24 -35s21.667 -18 35 -24s27.666 -9 42.999 -9zM79 656c0 14 5 26 15 36s22 15 36 15s26 -5 36 -15s15 -22 15 -36s-5 -26 -15 -36s-22 -15 -36 -15s-26 5 -36 15s-15 22 -15 36z" />
    <glyph glyph-name="ogonek" unicode="&#x2db;" 
d="M177 -145c-7.33301 -6 -15.833 -11.3311 -25.5 -15.998s-19.167 -7 -28.5 -7c-12 0 -22 4.83301 -30 14.5s-12 20.167 -12 31.5s2.83301 23.333 8.5 36s12.667 25.167 21 37.5s17.333 23.666 27 33.999s18.5 19.166 26.5 26.499h-68c-11.333 -8.66699 -23 -19 -35 -31
s-23.333 -25.167 -34 -39.5s-19.334 -29 -26.001 -44s-10 -29.833 -10 -44.5s2.83301 -27.834 8.5 -39.501s13.334 -21.5 23.001 -29.5s20.834 -14 33.501 -18s26 -6 40 -6c21.333 0 40.666 3.83301 57.999 11.5s34.333 17.834 51 30.501z" />
    <glyph glyph-name="tilde" unicode="&#x2dc;" 
d="M13 570c3.33301 9.33301 8.33691 18.667 15.0039 28s15.667 14 27 14c10 0 20.167 -2.16699 30.5 -6.5s21.166 -9.16602 32.499 -14.499s23.5 -10.166 36.5 -14.499s26.833 -6.5 41.5 -6.5c20.667 0 38.5 3.66699 53.5 11s27.667 17.166 38 29.499s18.5 26.833 24.5 43.5
s10.667 34.667 14 54h-78c-4.66699 -10 -10.334 -18.5 -17.001 -25.5s-15.667 -10.5 -27 -10.5c-10 0 -19.5 1.66699 -28.5 5l-27.5 10c-14.667 6 -28.667 11 -42 15s-28.333 6 -45 6c-18.667 0 -35.334 -4 -50.001 -12s-27.167 -18.5 -37.5 -31.5
s-18.833 -27.833 -25.5 -44.5s-11.334 -33.334 -14.001 -50.001h79z" />
    <glyph glyph-name="hungarumlaut" unicode="&#x2dd;" 
d="M-102 564h132l173 144h-204zM162 564h132l173 144h-204z" />
    <glyph glyph-name="endash" unicode="&#x2013;" horiz-adv-x="500" 
d="M0 189h500v120h-500v-120z" />
    <glyph glyph-name="emdash" unicode="&#x2014;" horiz-adv-x="1000" 
d="M0 189h1000v120h-1000v-120z" />
    <glyph glyph-name="quoteleft" unicode="&#x2018;" horiz-adv-x="296" 
d="M39 426h144l74 282h-128z" />
    <glyph glyph-name="quoteright" unicode="&#x2019;" horiz-adv-x="296" 
d="M257 708h-144l-74 -282h128z" />
    <glyph glyph-name="quotesinglbase" unicode="&#x201a;" horiz-adv-x="296" 
d="M257 156h-144l-74 -282h128z" />
    <glyph glyph-name="quotedblleft" unicode="&#x201c;" horiz-adv-x="520" 
d="M44 426h144l74 282h-128zM258 426h144l74 282h-128z" />
    <glyph glyph-name="quotedblright" unicode="&#x201d;" horiz-adv-x="520" 
d="M476 708h-144l-74 -282h128zM262 708h-144l-74 -282h128z" />
    <glyph glyph-name="quotedblbase" unicode="&#x201e;" horiz-adv-x="520" 
d="M476 156h-144l-74 -282h128zM262 156h-144l-74 -282h128z" />
    <glyph glyph-name="dagger" unicode="&#x2020;" horiz-adv-x="592" 
d="M224 -133h138v505h196v126h-196v210h-138v-210h-190v-126h190v-505z" />
    <glyph glyph-name="daggerdbl" unicode="&#x2021;" horiz-adv-x="592" 
d="M227 -133h138v180h193v120h-193v241h193v120h-193v180h-138v-180h-193v-120h193v-241h-193v-120h193v-180z" />
    <glyph glyph-name="bullet" unicode="&#x2022;" horiz-adv-x="500" 
d="M73 354c0 -24.667 4.66699 -47.667 14 -69s22 -40 38 -56s34.667 -28.667 56 -38s44.333 -14 69 -14s47.667 4.66699 69 14s40 22 56 38s28.667 34.667 38 56s14 44.333 14 69s-4.66699 47.667 -14 69s-22 40 -38 56s-34.667 28.667 -56 38s-44.333 14 -69 14
s-47.667 -4.66699 -69 -14s-40 -22 -56 -38s-28.667 -34.667 -38 -56s-14 -44.333 -14 -69z" />
    <glyph glyph-name="ellipsis" unicode="&#x2026;" horiz-adv-x="1000" 
d="M75 86c0 -12.667 2.33301 -24.667 7 -36s11.167 -21.166 19.5 -29.499s18.166 -14.833 29.499 -19.5s23.333 -7 36 -7s24.667 2.33301 36 7s21.166 11.167 29.499 19.5s14.833 18.166 19.5 29.499s7 23.333 7 36s-2.33301 24.667 -7 36s-11.167 21.166 -19.5 29.499
s-18.166 14.833 -29.499 19.5s-23.333 7 -36 7s-24.667 -2.33301 -36 -7s-21.166 -11.167 -29.499 -19.5s-14.833 -18.166 -19.5 -29.499s-7 -23.333 -7 -36zM408 86c0 -12.667 2.33301 -24.667 7 -36s11.167 -21.166 19.5 -29.499s18.166 -14.833 29.499 -19.5
s23.333 -7 36 -7s24.667 2.33301 36 7s21.166 11.167 29.499 19.5s14.833 18.166 19.5 29.499s7 23.333 7 36s-2.33301 24.667 -7 36s-11.167 21.166 -19.5 29.499s-18.166 14.833 -29.499 19.5s-23.333 7 -36 7s-24.667 -2.33301 -36 -7s-21.166 -11.167 -29.499 -19.5
s-14.833 -18.166 -19.5 -29.499s-7 -23.333 -7 -36zM741 86c0 -12.667 2.33301 -24.667 7 -36s11.167 -21.166 19.5 -29.499s18.166 -14.833 29.499 -19.5s23.333 -7 36 -7s24.667 2.33301 36 7s21.166 11.167 29.499 19.5s14.833 18.166 19.5 29.499s7 23.333 7 36
s-2.33301 24.667 -7 36s-11.167 21.166 -19.5 29.499s-18.166 14.833 -29.499 19.5s-23.333 7 -36 7s-24.667 -2.33301 -36 -7s-21.166 -11.167 -29.499 -19.5s-14.833 -18.166 -19.5 -29.499s-7 -23.333 -7 -36z" />
    <glyph glyph-name="perthousand" unicode="&#x2030;" horiz-adv-x="1167" 
d="M395 165c0 -24 4.5 -46.833 13.5 -68.5s21.5 -40.5 37.5 -56.5s34.667 -28.667 56 -38s44.333 -14 69 -14c24 0 46.667 4.66699 68 14s40 22 56 38s28.667 34.833 38 56.5s14 44.5 14 68.5s-4.66699 46.667 -14 68s-22 40 -38 56s-34.667 28.667 -56 38s-44 14 -68 14
c-24.667 0 -47.667 -4.66699 -69 -14s-40 -22 -56 -38s-28.5 -34.667 -37.5 -56s-13.5 -44 -13.5 -68zM782 165c0 -24 4.66699 -46.833 14 -68.5s22 -40.5 38 -56.5s34.667 -28.667 56 -38s44 -14 68 -14s46.833 4.66699 68.5 14s40.5 22 56.5 38s28.667 34.833 38 56.5
s14 44.5 14 68.5s-4.66699 46.667 -14 68s-22 40 -38 56s-34.833 28.667 -56.5 38s-44.5 14 -68.5 14s-46.667 -4.66699 -68 -14s-40 -22 -56 -38s-28.667 -34.667 -38 -56s-14 -44 -14 -68zM32 544c0 -24 4.5 -46.833 13.5 -68.5s21.5 -40.5 37.5 -56.5
s34.667 -28.667 56 -38s44.333 -14 69 -14c24 0 46.833 4.66699 68.5 14s40.5 22 56.5 38s28.667 34.833 38 56.5s14 44.5 14 68.5s-4.66699 46.667 -14 68s-22 40 -38 56s-34.833 28.667 -56.5 38s-44.5 14 -68.5 14c-24.667 0 -47.667 -4.66699 -69 -14s-40 -22 -56 -38
s-28.5 -34.667 -37.5 -56s-13.5 -44 -13.5 -68zM128 544c0 22 7.83301 40.833 23.5 56.5s34.5 23.5 56.5 23.5s41 -7.83301 57 -23.5s24 -34.5 24 -56.5s-8 -41 -24 -57s-35 -24 -57 -24s-40.833 8 -56.5 24s-23.5 35 -23.5 57zM491 165c0 22 7.83301 40.833 23.5 56.5
s34.5 23.5 56.5 23.5s40.833 -7.83301 56.5 -23.5s23.5 -34.5 23.5 -56.5s-7.83301 -41 -23.5 -57s-34.5 -24 -56.5 -24s-40.833 8 -56.5 24s-23.5 35 -23.5 57zM878 165c0 22 7.83301 40.833 23.5 56.5s34.5 23.5 56.5 23.5s41 -7.83301 57 -23.5s24 -34.5 24 -56.5
s-8 -41 -24 -57s-35 -24 -57 -24s-40.833 8 -56.5 24s-23.5 35 -23.5 57zM147 11l76 -43l413 725l-84 47z" />
    <glyph glyph-name="guilsinglleft" unicode="&#x2039;" horiz-adv-x="296" 
d="M268 422l-91 61l-159 -234l159 -234l91 61l-116 173z" />
    <glyph glyph-name="guilsinglright" unicode="&#x203a;" horiz-adv-x="296" 
d="M28 76l91 -61l159 234l-159 234l-91 -61l116 -173z" />
    <glyph glyph-name="fraction" unicode="&#x2044;" horiz-adv-x="167" 
d="M-161 11l76 -43l413 725l-84 47z" />
    <glyph glyph-name="trademark" unicode="&#x2122;" horiz-adv-x="1000" 
d="M159 296h108v316h119v96h-346v-96h119v-316zM474 296h108v268h2l98 -268h70l98 268h2v-268h108v412h-145l-98 -268l-98 268h-145v-412z" />
    <glyph glyph-name="minus" unicode="&#x2212;" horiz-adv-x="666" 
d="M59 240h548v126h-548v-126z" />
    <glyph glyph-name="fi" unicode="&#xfb01;" horiz-adv-x="630" 
d="M425 0h150v486h-150v-486zM413 639c0 -24 8.5 -44.5 25.5 -61.5s37.5 -25.5 61.5 -25.5s44.5 8.5 61.5 25.5s25.5 37.5 25.5 61.5s-8.5 44.5 -25.5 61.5s-37.5 25.5 -61.5 25.5s-44.5 -8.5 -61.5 -25.5s-25.5 -37.5 -25.5 -61.5zM105 0l150.001 0.00195312v366h111v120
h-111v77c0 32 6 53.167 18 63.5s30 15.5 54 15.5c9.33301 0 17.666 -0.833008 24.999 -2.5s15.333 -4.16699 24 -7.5l7 127c-14 3.33301 -28.333 5.66602 -43 6.99902s-29.667 2 -45 2c-40.667 0 -73.5 -5.16699 -98.5 -15.5s-44.167 -24.5 -57.5 -42.5
s-22.333 -38.833 -27 -62.5s-7 -48.834 -7 -75.501v-86h-99v-120h99v-366z" />
    <glyph glyph-name="fl" unicode="&#xfb02;" horiz-adv-x="630" 
d="M425 0h150v756h-150v-756zM105 0l150.001 0.00195312v366h111v120h-111v77c0 32 6 53.167 18 63.5s30 15.5 54 15.5c9.33301 0 17.666 -0.833008 24.999 -2.5s15.333 -4.16699 24 -7.5l7 127c-14 3.33301 -28.333 5.66602 -43 6.99902s-29.667 2 -45 2
c-40.667 0 -73.5 -5.16699 -98.5 -15.5s-44.167 -24.5 -57.5 -42.5s-22.333 -38.833 -27 -62.5s-7 -48.834 -7 -75.501v-86h-99v-120h99v-366z" />
    <glyph glyph-name=".null" horiz-adv-x="0" 
 />
    <glyph glyph-name="nonmarkingreturn" horiz-adv-x="500" 
 />
  </font>
</defs>
</svg>
