<svg width="32" height="22" viewBox="0 0 32 22" fill="none" xmlns="http://www.w3.org/2000/svg">
<path d="M3 6H29C30.654 6 32 4.654 32 3C32 1.346 30.654 0 29 0H3C1.346 0 0 1.346 0 3C0 4.654 1.346 6 3 6ZM3 2H29C29.552 2 30 2.449 30 3C30 3.552 29.552 4 29 4H3C2.448 4 2 3.552 2 3C2 2.449 2.448 2 3 2ZM29 8H3C1.346 8 0 9.346 0 11C0 12.654 1.346 14 3 14H29C30.654 14 32 12.654 32 11C32 9.346 30.654 8 29 8ZM29 12H3C2.448 12 2 11.552 2 11C2 10.448 2.448 10 3 10H29C29.552 10 30 10.448 30 11C30 11.552 29.552 12 29 12ZM29 16H3C1.346 16 0 17.346 0 19C0 20.654 1.346 22 3 22H29C30.654 22 32 20.654 32 19C32 17.346 30.654 16 29 16ZM29 20H3C2.448 20 2 19.552 2 19C2 18.448 2.448 18 3 18H29C29.552 18 30 18.448 30 19C30 19.552 29.552 20 29 20Z" fill="#01996D"/>
</svg>
